<svg width="24" height="24" viewBox="0 0 24 24" fill="none" xmlns="http://www.w3.org/2000/svg">
<path d="M20.7 4.10005C18.7 4.80005 15.9 5.50005 12 5.50005C8.1 5.50005 5.1 4.70005 3.3 4.10005C2.7 3.80005 2 4.30005 2 5.00005V19.0001C2 19.7001 2.7 20.2001 3.3 20.0001C5.4 19.3001 8.1 18.5001 12 18.5001C15.9 18.5001 18.7 19.3001 20.7 20.0001C21.4 20.2001 22 19.7001 22 19.0001V5.00005C22 4.30005 21.3 3.80005 20.7 4.10005ZM12 15.0001C9.7 15.0001 7.5 15.1001 5.5 15.4001L9.2 11L11.2 13.4001L14 10L18.5 15.4001C16.5 15.1001 14.3 15.0001 12 15.0001Z" fill="white"/>
</svg>
