<svg width="24" height="24" viewBox="0 0 24 24" fill="none" xmlns="http://www.w3.org/2000/svg">
<path d="M17.4975 23.33V20.997H20.997V17.4975H23.33V21.5802C23.33 22.0352 23.1434 22.4435 22.7934 22.7934C22.4435 23.1434 22.0352 23.33 21.5802 23.33H17.4975ZM5.8325 23.33H1.74975C1.29481 23.33 0.88654 23.1434 0.53659 22.7934C0.18664 22.4435 0 22.0352 0 21.5802V17.4975H2.333V20.997H5.8325V23.33ZM17.4975 0H21.5802C22.0352 0 22.4435 0.18664 22.7934 0.53659C23.1434 0.88654 23.33 1.29481 23.33 1.74975V5.8325H20.997V2.333H17.4975V0ZM5.8325 0V2.333H2.333V5.8325H0V1.74975C0 1.29481 0.18664 0.88654 0.53659 0.53659C0.88654 0.18664 1.29481 0 1.74975 0H5.8325ZM12.8315 17.7891L17.4975 15.1062V9.75194L12.8315 12.4349V17.7891ZM11.665 10.4052L16.331 7.73389L11.665 4.99262L6.999 7.73389L11.665 10.4052ZM5.8325 15.1062L10.4985 17.7891V12.4349L5.8325 9.75194V15.1062ZM18.9323 6.52073C19.5155 6.89401 19.8305 7.39561 19.8305 8.06051V15.4328C19.8305 16.0977 19.5155 16.5993 18.9323 16.9726L12.5399 20.682C11.9566 21.0553 11.3734 21.0553 10.7901 20.682L4.39771 16.9726C3.81445 16.5993 3.4995 16.0977 3.4995 15.4328V8.06051C3.4995 7.39561 3.81445 6.89401 4.39771 6.52073L10.7901 2.81126C11.0817 2.65962 11.3734 2.58963 11.665 2.58963C11.9566 2.58963 12.2483 2.65962 12.5399 2.81126L18.9323 6.52073Z" fill="white"/>
</svg>
