<svg width="28" height="24" viewBox="0 0 28 24" fill="none" xmlns="http://www.w3.org/2000/svg">
<path d="M4.70075 14.8988C3.86472 14.1397 3.23404 13.2215 2.85647 12.2137C2.47891 11.2059 2.36436 10.135 2.52151 9.08208C2.67866 8.02913 3.10338 7.02178 3.76351 6.13631C4.42364 5.25085 5.30186 4.51049 6.33165 3.97133C7.36144 3.43216 8.51579 3.10833 9.70727 3.02435C10.8988 2.94038 12.0961 3.09846 13.2087 3.48664C14.3212 3.87481 15.3198 4.48289 16.1287 5.26481C16.9376 6.04674 17.5357 6.98201 17.8777 7.99978H19.8919C20.9784 7.99967 22.0361 8.3101 22.9088 8.88522C23.7814 9.46033 24.4228 10.2696 24.7382 11.1936C25.0536 12.1175 25.0262 13.1071 24.6601 14.0162C24.294 14.9252 23.6086 15.7055 22.7051 16.2418" stroke="white" stroke-width="2" stroke-linecap="round" stroke-linejoin="round"/>
<path d="M13.7031 12V21" stroke="white" stroke-width="2" stroke-linecap="round" stroke-linejoin="round"/>
<path d="M18.2053 16L13.7042 12L9.20312 16" stroke="white" stroke-width="2" stroke-linecap="round" stroke-linejoin="round"/>
</svg>
