<svg width="799" height="121" viewBox="0 0 799 121" fill="none" xmlns="http://www.w3.org/2000/svg">
<path d="M37.7862 16.1498C41.1884 9.63231 40.395 3.37537 36.0143 2.17452C31.6335 0.97368 25.3241 5.28366 21.9219 11.8011C18.5197 18.3186 19.313 24.5755 23.6938 25.7764C28.0746 26.9772 34.384 22.6672 37.7862 16.1498Z" fill="#EEF4ED" stroke="#83AA5E" stroke-opacity="0.39" stroke-width="1.84995" stroke-miterlimit="10" stroke-linecap="round" stroke-linejoin="round"/>
<path d="M2.0758 18.7936C3.83706 22.2132 7.61802 24.6479 12.069 25.6814C14.5003 22.7889 15.1512 19.1473 13.39 15.7277C11.6287 12.308 7.84775 9.87336 3.39675 8.83984C0.965451 11.7392 0.314547 15.3739 2.0758 18.7936Z" fill="#EEF4ED" stroke="#83AA5E" stroke-opacity="0.39" stroke-width="1.84995" stroke-miterlimit="10" stroke-linecap="round" stroke-linejoin="round"/>
<path d="M596.874 22.8785C590.633 20.4716 583.521 20.4577 577.52 22.3791C578.678 27.0612 582.66 31.327 588.91 33.734C595.151 36.1409 602.263 36.1548 608.265 34.2334C607.107 29.5513 603.125 25.2855 596.874 22.8785Z" fill="#EEF4ED" stroke="#83AA5E" stroke-opacity="0.39" stroke-width="1.84995" stroke-miterlimit="10" stroke-linecap="round" stroke-linejoin="round"/>
<path d="M577.52 22.3794L601.354 31.466" stroke="#83AA5E" stroke-opacity="0.39" stroke-width="1.84995" stroke-miterlimit="10" stroke-linecap="round" stroke-linejoin="round"/>
<path d="M794.791 115.279C796.991 112.283 791.893 107.2 783.404 103.926C774.915 100.652 766.249 100.427 764.049 103.424C761.848 106.42 766.946 111.503 775.435 114.777C783.925 118.05 792.59 118.275 794.791 115.279Z" fill="#EEF4ED" stroke="#83AA5E" stroke-opacity="0.39" stroke-width="1.84995" stroke-miterlimit="10" stroke-linecap="round" stroke-linejoin="round"/>
<path d="M794.772 115.323L770.938 106.237" stroke="#83AA5E" stroke-opacity="0.39" stroke-width="1.84995" stroke-miterlimit="10" stroke-linecap="round" stroke-linejoin="round"/>
</svg>
