<svg width="39" height="43" viewBox="0 0 39 43" fill="none" xmlns="http://www.w3.org/2000/svg">
<path d="M20.1415 21.3903C20.9738 21.2283 21.7252 20.7773 22.2678 20.1142C22.8104 19.451 23.1106 18.6167 23.1172 17.7533C23.1172 15.7279 21.428 14.0863 19.4714 14.0863C18.5716 14.0984 17.709 14.4534 17.0533 15.0813C16.3976 15.7091 15.9964 16.5644 15.9287 17.4786C15.8609 18.3928 16.1316 19.2998 16.6874 20.0208C17.2431 20.7419 18.0437 21.2247 18.9314 21.3744C18.9314 21.3744 19.105 21.4452 19.1363 21.1409C19.1554 20.945 19.1554 20.7477 19.1363 20.5518C19.1363 20.5518 19.0773 20.3272 19.0078 20.1096C18.6643 19.344 18.4923 18.5101 18.5043 17.6684C18.5616 16.3948 19.2856 16.0268 19.4592 14.8381C19.4592 14.8381 20.0477 16.1489 20.3724 17.0581C20.6048 17.6784 20.6122 18.3628 20.3932 18.9881C20.2787 19.3737 19.9714 20.145 19.9332 20.5713C19.895 20.9976 19.8932 21.1497 19.8932 21.1497C19.8928 21.2137 19.9171 21.2753 19.9611 21.321C20.005 21.3667 20.0648 21.3929 20.1276 21.3939C20.1339 21.3948 20.1404 21.3948 20.1467 21.3939M20.4366 21.5973C21.3862 21.3475 22.2114 20.7486 22.7536 19.916C23.2957 19.0833 23.5164 18.0758 23.3732 17.0873C23.23 16.0988 22.7329 15.1992 21.9778 14.5617C21.2226 13.9242 20.2627 13.5939 19.2828 13.6343C18.303 13.6748 17.3724 14.0831 16.6703 14.7807C15.9682 15.4783 15.5442 16.4159 15.4799 17.413C15.4156 18.4101 15.7155 19.3961 16.322 20.1814C16.9284 20.9666 17.7985 21.4955 18.7648 21.6663C18.8626 21.6607 18.9602 21.6806 19.0483 21.7243C19.1364 21.768 19.2121 21.8338 19.2682 21.9157C19.3165 21.9859 19.3463 22.0675 19.355 22.1527C19.355 22.1527 19.4175 23.9217 19.4002 24.2596C19.3828 24.5975 19.0946 24.2879 19.0946 24.2879C18.9713 22.8727 17.6276 21.8503 16.4297 21.2417C15.8533 20.9483 15.3625 20.5061 15.006 19.9592C14.5807 19.2658 14.5963 18.2168 14.5963 18.2168C13.6171 20.8702 14.6918 22.6587 14.6918 22.6587C15.605 24.134 16.6015 24.3321 17.9366 25.0185C18.6311 25.3723 18.4245 25.7066 18.263 25.7261C16.3828 25.4483 14.9644 24.4701 13.8533 23.1328C12.7073 21.7465 12.0788 19.9922 12.0789 18.1797C12.0789 13.9607 15.3932 10.5395 19.4766 10.5395C23.5599 10.5395 26.8672 13.966 26.8672 18.185C26.8672 21.9387 24.3672 25.0839 20.9054 25.7225C20.7162 25.7667 20.2405 25.4607 21.079 25.0468C21.5998 24.7832 22.6415 24.4754 23.4696 23.736C24.2978 22.9965 24.6849 22.2412 24.8238 20.9941C24.9352 20.057 24.8097 19.1065 24.4592 18.2327C24.4592 18.2327 24.4193 19.3772 23.9974 19.9911C23.5756 20.6049 23.3481 20.7287 22.4054 21.362C21.4627 21.9953 20.605 22.5278 20.2821 23.2035C20.1029 23.5383 19.9918 23.9065 19.9557 24.2861C19.9557 24.2861 19.6745 24.6134 19.6745 24.226C19.6745 23.8386 19.7352 22.1811 19.7352 22.1811C19.7253 22.0945 19.7462 22.0072 19.7943 21.9352C19.8759 21.8043 20.0547 21.6627 20.4488 21.5991M21.4627 31.6822C24.8 31.2059 27.8373 29.4622 29.9661 26.8005C32.0948 24.1387 33.1577 20.7556 32.9417 17.3291C32.7257 13.9025 31.2468 10.6857 28.8014 8.32335C26.3559 5.96096 23.1246 4.62749 19.7549 4.59017C16.3853 4.55285 13.1263 5.81443 10.631 8.12211C8.13571 10.4298 6.58853 13.6131 6.29948 17.034C6.01044 20.4549 7.0009 23.8608 9.07237 26.5691C11.1438 29.2773 14.1433 31.0879 17.4696 31.6379C17.4696 31.6379 17.5686 31.1072 15.4192 30.1325C13.2699 29.1578 10.7525 28.2787 10.1067 26.2125C9.46087 24.1464 10.131 21.2594 10.1484 19.3472C10.1484 19.3472 10.3515 21.1904 10.9696 22.5897C11.8602 24.5975 13.5112 25.3086 15.3342 26.1082C15.3342 26.1082 17.3602 26.8777 18.0946 27.8435C18.3745 28.1496 18.5807 28.5178 18.697 28.919C18.7943 29.2357 19.1154 29.2286 19.1311 28.935C19.1287 28.2567 19.0864 27.5791 19.0043 26.906C18.9349 26.5522 18.8776 26.3045 18.2682 26.0073C13.9748 25.3988 10.8897 21.6627 10.8897 17.1625C10.8897 12.2465 14.6137 8.27699 19.4054 8.27699C21.5893 8.29786 23.6864 9.15077 25.2841 10.6679C26.8819 12.185 27.8645 14.2565 28.0387 16.4747C28.2128 18.6929 27.5659 20.8972 26.2252 22.6538C24.8845 24.4105 22.9471 25.5923 20.7943 25.9666C20.7943 25.9666 20.1727 26.1152 20.0564 26.9555C19.9818 27.6156 19.9435 28.2794 19.9418 28.9438C19.9418 28.9438 20.1155 29.3082 20.3273 28.981C20.3273 28.981 20.5634 27.472 22.8134 26.5168C25.5617 25.3493 27.6936 24.5868 28.5426 21.1798C28.5426 21.1798 28.8898 19.6833 28.8898 19.3401C28.8898 19.3401 29.1936 22.3473 29.2197 22.9629C29.2457 23.5785 29.4454 25.5669 28.7995 26.5628C28.1537 27.5587 28.1468 27.8612 26.5426 28.774C24.9384 29.6868 24.3933 29.7734 23.8967 29.9981C23.4002 30.2228 22.1606 30.6632 21.48 31.6733M28.3707 42.9469H29.336C29.336 42.9469 29.6624 40.8985 30.9263 40.0334C32.1902 39.1684 32.5652 39.1065 33.4419 38.6554C36.6833 36.9891 38.9211 34.7212 38.9975 30.2988C39.027 28.6006 38.7822 17.1289 38.7822 17.1289L38.685 10.5094C38.685 10.5094 36.1347 10.5094 34.9784 12.7932C33.3794 5.46964 27.086 0 19.5339 0C11.8949 0 5.52681 5.60231 4.03027 13.055V12.825C2.87228 10.5253 0.314972 10.5253 0.314972 10.5253L0.217749 17.1413C0.217749 17.1413 -0.0270447 28.613 0.00246938 30.3112C0.0805949 34.7336 2.31672 37.0014 5.55806 38.666C6.42613 39.1171 6.80981 39.1843 8.07371 40.0441C9.3376 40.9038 9.66399 42.9575 9.66399 42.9575H10.6293C10.5338 39.8548 7.39662 38.6996 4.84278 37.1889C4.03303 36.6771 3.29089 36.0618 2.63443 35.3581C0.794141 33.46 0.759419 30.3466 0.759419 30.3466L0.802822 27.2668L0.816711 21.7583L0.870531 16.0976L0.856642 11.2506C2.76638 11.546 3.54937 13.1151 3.85319 14.0951C3.74852 14.8642 3.69573 15.6396 3.6952 16.416C3.6952 23.7873 8.256 29.9415 14.7022 32.0183C14.7022 32.0183 16.7456 32.3915 17.2543 33.2725C17.763 34.1534 17.664 33.5891 18.1484 35.3492C18.1484 35.3492 18.5825 36.9095 18.5564 39.4178C18.5304 41.9262 18.5095 42.9858 18.5095 42.9858H19.0165C19.2408 41.384 19.2816 39.761 19.138 38.1495C18.895 35.4872 18.8238 34.2666 17.9227 32.9735C17.8914 32.9207 17.8554 32.871 17.8151 32.8249C17.7008 32.6938 17.5734 32.5752 17.4349 32.4711C17.2066 32.2979 16.961 32.1497 16.7022 32.0289C16.252 31.8273 15.7878 31.66 15.3133 31.5283C8.84802 29.4745 4.30805 23.4618 4.30805 16.3541C4.30805 7.64723 11.1258 0.580221 19.5356 0.580221C27.9454 0.580221 34.7614 7.65608 34.7614 16.3541C34.7614 23.3397 30.3725 29.2675 24.2891 31.3354C24.2891 31.3354 22.8134 31.8166 22.2179 32.1032C21.6224 32.3897 20.7023 32.9735 20.3221 34.7725C19.9418 36.5716 19.9748 37.0333 19.9262 37.7285C19.8776 38.4237 19.8151 39.4161 19.8359 40.3218C19.8568 41.2275 19.9141 42.4269 19.9818 43H20.5512C20.5512 43 20.4609 40.7799 20.4609 39.5417C20.4334 38.3271 20.53 37.113 20.7491 35.9188C21.0044 34.6169 21.4731 33.4954 21.8846 33.0743C22.296 32.6533 23.3047 32.3367 23.7162 32.2075C27.0693 31.2008 30.0127 29.1153 32.1062 26.2629C34.1997 23.4104 35.3309 19.9442 35.3308 16.3824C35.3312 15.5678 35.2732 14.7543 35.1572 13.9483C35.4888 12.9647 36.2788 11.5213 38.1086 11.2382L38.0947 16.0764L38.1503 21.753L38.1625 27.2544L38.2059 30.3342C38.2059 30.3342 38.1763 33.4405 36.3256 35.3457C35.6713 36.0505 34.9295 36.6654 34.119 37.1748C31.5634 38.6873 28.4263 39.8424 28.3325 42.9452" fill="#065036"/>
</svg>
