<svg width="146" height="346" viewBox="0 0 146 346" fill="none" xmlns="http://www.w3.org/2000/svg">
<path d="M53.7109 60.9664C54.5974 60.5122 55.4726 59.9881 56.3928 59.6154C57.01 59.3708 57.6945 59.3242 58.3565 59.1844C58.4127 59.3242 58.4688 59.4756 58.5249 59.6154C57.9526 60.0347 57.4139 60.4889 56.808 60.8499C52.3418 63.5753 50.1312 67.7566 49.4355 72.9627C49.2335 74.4535 48.953 75.921 49.4018 77.4118C49.4804 77.6797 49.514 78.0175 49.413 78.262C48.852 79.7295 49.8058 80.7195 50.3444 81.8726C50.5913 81.7794 50.7821 81.7678 50.8943 81.6746C55.7419 77.5167 58.7269 72.3221 59.1533 65.7067C59.2655 63.948 59.4338 62.201 59.5909 60.2676C60.324 61.0984 60.7879 63.6801 60.9824 68.0128C62.6768 62.8765 63.5521 57.5422 64.3713 52.1963C64.4835 52.1963 64.6069 52.2079 64.7191 52.2196C64.7416 53.1164 64.865 54.0365 64.764 54.9217C63.9897 61.9913 62.5197 68.8979 60.0285 75.5367C59.546 76.8178 58.9176 78.0524 58.2556 79.252C57.7169 80.2187 57.0324 81.1155 55.7307 81.3601C56.4489 80.0557 57.1558 78.7512 57.874 77.4468C57.8179 77.4235 57.773 77.4002 57.7169 77.3769C56.1796 78.9725 54.6422 80.5681 52.9815 82.2802C53.6772 85.8209 54.4403 89.5362 55.1135 93.2632C55.7307 96.7107 56.3591 100.17 56.7855 103.641C57.6159 110.431 58.2892 117.244 59.0523 124.046C59.849 131.139 60.6233 138.232 61.4986 145.313C62.127 150.391 62.9349 155.458 63.597 160.536C63.9336 163.156 64.1468 165.8 64.3937 168.444C64.9436 174.291 65.5383 180.126 66.032 185.984C66.4697 191.214 66.8736 196.443 67.1654 201.673C67.4235 206.261 67.4908 210.862 67.6591 215.719C67.8499 215.148 68.007 214.799 68.0856 214.426C70.0044 206.494 71.8672 198.551 73.8422 190.631C76.5129 179.916 79.9467 169.434 83.6161 159.057C85.7818 152.942 88.1496 146.909 90.4163 140.841C90.5734 140.41 90.7529 139.991 90.8764 139.548C91.2242 138.348 91.1457 138.139 90.1694 137.417C88.778 136.392 87.768 135.006 86.9601 133.492C84.4689 128.879 82.7408 123.964 82.0451 118.712C81.9553 118.071 82.0339 117.407 82.191 116.72C83.9752 121.903 85.2656 127.261 88.0486 132.012C86.8591 128.064 86.0063 124.034 85.636 119.935C85.2656 115.893 84.8504 111.852 85.2769 107.799C85.4115 107.787 85.5574 107.775 85.6921 107.764C85.8379 109.196 85.9501 110.629 86.1409 112.05C86.803 116.895 87.3304 121.763 88.2393 126.55C88.7443 129.171 89.9113 131.651 90.7978 134.202C90.8652 134.4 91.0223 134.563 91.3589 134.633C91.2691 134.354 91.1906 134.074 91.0896 133.806C89.339 129.334 88.8677 124.663 89.2942 119.9C89.6981 115.357 91.2804 111.176 93.1431 107.1C93.7827 105.69 93.8613 105.667 95.0844 105.76C95.7016 103.594 96.2515 101.451 96.936 99.3429C97.2502 98.3762 97.7776 97.4561 98.2938 96.5826C99.2252 94.987 99.9097 94.7657 101.604 95.3713C101.963 95.4995 102.3 95.6975 102.883 95.977C102.457 91.9472 101.986 88.1619 102.367 84.2952C102.749 80.475 103.141 76.6781 104.297 73.0093C104.926 73.9294 104.701 74.8845 104.6 75.8162C104.264 79.2521 103.905 82.6879 103.579 86.1354C103.523 86.741 103.579 87.3466 103.579 88.3133C105.072 86.3101 105.307 83.7128 107.843 82.8975C107.742 83.2819 107.675 83.6895 107.518 84.0389C106.732 85.8209 105.868 87.5563 105.128 89.3615C104.05 92.0054 104.398 94.8006 104.533 97.561C104.544 97.8288 104.679 98.12 104.825 98.3529C106.53 100.962 107.204 103.897 107.451 106.983C107.462 107.146 107.551 107.298 107.608 107.461C110.076 105.434 112.489 99.4128 112.635 95.8605C112.826 91.1668 110.884 87.533 108.056 83.9457C109.01 83.7827 109.1 83.2236 109.145 82.4782C109.257 80.3585 109.459 78.2271 109.706 76.119C110.054 73.2073 111.154 70.7032 113.499 68.9678C112.534 64.577 112.119 60.2443 113.162 55.9117C113.308 55.9 113.454 55.8883 113.589 55.8767C113.667 56.3542 113.791 56.8201 113.802 57.2976C113.925 60.6985 114.004 64.0878 114.172 67.4887C114.228 68.6417 114.06 69.6899 113.409 70.5984C111.58 73.1025 111.086 76.0375 110.794 79.0424C110.626 80.7545 110.458 82.4666 110.29 84.2952C113.353 88.0338 114.789 92.4014 113.948 97.363C115.799 96.1866 117.494 94.8589 119.39 93.9854C121.287 93.1002 123.363 92.5761 125.394 92.0171C126.83 91.6211 128.255 91.7142 129.478 92.8207C129.691 93.0187 130.084 92.9954 130.634 93.1351C130.387 94.0553 130.264 95.0336 129.86 95.8722C128.154 99.4128 125.708 102.243 122.274 104.083C121.657 104.421 121.141 104.945 120.366 105.551C121.848 105.947 123.048 106.273 124.485 106.669C124.451 107.053 124.485 107.67 124.328 108.23C123.531 111.246 122.431 114.123 120.591 116.65C119.996 117.466 119.536 118.409 119.031 119.259C119.11 119.411 119.132 119.55 119.211 119.597C121.186 120.692 121.354 121.216 120.153 123.196C117.595 127.424 114.116 130.696 110.11 133.41C107.406 135.25 104.544 136.799 101.413 137.673C99.977 138.069 98.4958 138.337 97.0145 138.546C96.3076 138.64 95.9822 138.872 95.7353 139.595C93.5247 146.117 91.213 152.593 89.0248 159.126C87.6446 163.261 86.5112 167.477 85.131 171.612C82.0563 180.836 80.4067 190.445 78.039 199.856C75.8059 208.719 73.7524 217.629 72.3385 226.678C71.7213 230.662 71.3398 234.68 70.7675 238.663C69.9035 244.661 69.7015 250.706 69.3648 256.751C69.1067 261.41 68.6691 266.057 68.5905 270.727C68.4446 279.031 68.5008 287.335 68.5232 295.64C68.5232 297.131 68.7589 298.621 69.0843 300.147C69.3312 298.994 69.5668 297.841 69.8137 296.688C70.6216 292.81 71.4632 288.931 72.2375 285.041C72.9332 281.547 73.5055 278.03 74.2237 274.536C74.9194 271.216 75.7386 267.932 76.5129 264.636C78.1512 257.589 79.7783 250.531 81.4503 243.485C82.5276 238.943 84.3567 234.657 86.0399 230.336C88.9351 222.905 91.8863 215.509 94.6356 208.02C96.2178 203.722 97.3848 199.25 98.8324 194.894C100.213 190.759 101.66 186.648 103.175 182.56C104.342 179.392 105.61 176.247 106.923 173.138C107.54 171.67 108.382 170.307 109.291 168.584C109.425 169.224 109.56 169.574 109.549 169.9C109.358 175.083 109.156 180.266 108.921 185.448C108.82 187.638 108.618 189.816 108.539 192.006C108.247 199.786 107.293 207.496 106.272 215.206C105.835 218.456 105.633 221.74 105.15 224.978C104.062 232.269 103.007 239.583 100.706 246.583C99.3261 250.776 97.4746 254.782 95.8363 258.882C94.3999 262.504 92.9636 266.127 91.5385 269.76C91.3813 270.168 91.2916 270.599 91.3477 271.111C91.5497 270.867 91.7629 270.622 91.9424 270.354C95.1854 265.533 98.4621 260.734 101.66 255.889C108.225 245.954 114.655 235.926 120.4 225.444C125.237 216.616 128.423 207.217 130.196 197.282C132.014 187.091 133.989 176.923 135.381 166.662C136.469 158.556 138.826 150.834 140.98 143.042C141.496 141.167 142.203 139.338 142.877 137.51C143.191 136.648 143.673 135.868 144.594 135.518C145.334 136.031 145.402 136.811 145.379 137.533C145.143 145.36 145.166 153.187 144.313 160.99C143.516 168.199 142.607 175.409 142.854 182.7C142.933 185.122 143.056 187.533 143.135 189.956C143.337 195.919 142.596 201.801 141.732 207.671C140.947 213.028 140.06 218.363 139.207 223.709C137.58 233.888 134.09 243.357 129.086 252.255C125.596 258.451 121.399 264.112 116.944 269.574C111.782 275.91 106.553 282.199 101.312 288.477C98.2938 292.087 95.1293 295.582 92.122 299.204C88.4189 303.664 85.7145 308.673 83.9527 314.321C81.8207 321.17 79.3295 327.902 77.0291 334.692C76.771 335.449 76.6027 336.253 76.5241 337.044C76.2772 339.7 75.2561 342.053 73.9432 344.277C73.3597 345.279 73.0118 345.36 72.0243 344.895C67.3337 342.658 62.6095 340.48 57.9975 338.093C56.0786 337.103 54.3056 335.74 52.6112 334.354C50.4679 332.607 48.4592 330.709 46.4281 328.822C43.4656 326.073 41.0081 322.859 38.9546 319.341C36.4522 315.055 34.0845 310.676 31.728 306.297C28.9563 301.125 26.9028 295.686 25.9153 289.816C24.5014 281.384 21.9877 273.254 19.1038 265.265C16.074 256.879 14.0766 248.202 12.0455 239.525C10.9907 235.006 9.4197 230.603 7.94968 226.201C5.77272 219.667 3.47232 213.18 1.22802 206.669C1.02604 206.075 0.767941 205.493 0.599619 204.887C0.37519 204.118 0.218089 203.326 0.846491 202.604C1.01481 202.721 1.18314 202.779 1.27291 202.907C5.72783 209.383 10.2613 215.8 14.5928 222.357C17.8134 227.214 20.125 232.607 22.4142 237.988C23.671 240.934 25.1522 243.788 26.4202 246.723C29.4164 253.641 31.526 260.85 32.7716 268.328C33.7479 274.163 35.5321 279.707 38.2813 284.913C39.4484 287.126 40.4246 289.444 41.6927 291.726C41.6927 291.33 41.7151 290.923 41.6927 290.527C41.5356 287.825 41.4233 285.123 41.1989 282.421C40.851 278.298 40.4359 274.175 40.0319 270.052C39.7289 266.965 39.2239 263.879 39.1229 260.781C38.921 255.062 38.3038 249.413 37.3499 243.788C36.9684 241.528 36.7103 239.222 36.5532 236.939C36.3176 233.573 35.5657 230.336 34.6343 227.133C33.3439 222.695 32.4125 218.223 32.3901 213.552C32.3788 210.559 32.1768 207.566 31.9412 204.573C31.5933 200.077 30.5161 195.721 29.2593 191.423C26.9252 183.434 24.6921 175.409 22.2907 167.431C20.5851 161.77 18.6662 156.18 16.8932 150.543C15.8272 147.153 14.8397 143.729 13.8858 140.305C13.5716 139.175 13.6614 139.094 14.0317 137.883C14.3459 138.162 14.6601 138.372 14.8733 138.651C19.0365 143.974 23.1884 149.32 27.3516 154.642C29.8652 157.857 31.5709 161.549 33.0858 165.334C34.9934 170.063 36.8225 174.827 38.6516 179.59C40.9408 185.553 42.5006 191.714 43.5105 198.05C44.1726 202.185 45.1489 206.285 46.2037 210.338C47.6961 216.08 48.8968 221.857 49.4916 227.773C50.0975 233.841 50.8718 239.898 51.3656 245.977C51.7471 250.671 51.8481 255.4 52.0052 260.117C52.095 262.877 51.893 265.661 52.1062 268.398C52.3867 271.95 52.9141 275.479 53.3967 279.02C53.9577 283.189 54.6198 287.336 55.1809 291.505C55.9776 297.48 57.6833 303.187 59.5797 308.859C60.4886 311.573 61.4537 314.275 62.4187 316.988C62.6095 317.524 62.8564 318.025 63.2828 318.491C63.092 316.732 62.9349 314.974 62.6993 313.238C62.0596 308.603 61.8464 303.944 61.8352 299.274C61.8128 288.593 61.7567 277.925 61.8689 267.245C61.9362 260.618 62.2504 253.99 62.5085 247.363C62.5758 245.581 62.89 243.823 63.0471 242.041C63.3501 238.465 63.3052 234.901 62.6993 231.361C62.5422 230.452 62.4524 229.532 62.4187 228.612C62.2841 224.058 62.1943 219.504 62.0484 214.95C61.8576 209.313 61.5547 203.676 60.8926 198.062C60.1408 191.656 59.6358 185.227 59.0523 178.81C58.6707 174.675 58.3341 170.552 57.9862 166.417C57.8067 164.239 57.6945 162.05 57.4925 159.872C56.9763 154.316 56.4601 148.749 55.899 143.193C55.4502 138.721 55.0013 134.26 54.4627 129.8C53.666 123.231 52.8468 116.662 51.9266 110.105C50.8045 102.127 49.5814 94.1717 48.3919 86.2169C48.3582 85.9839 48.3358 85.7627 48.3021 85.5297C47.9655 83.608 47.943 83.7128 46.0354 83.2935C40.0319 81.9774 34.9261 79.252 32.132 73.1723C31.7504 72.3454 31.3913 71.4836 31.1557 70.6101C30.9088 69.6667 30.8976 68.6999 31.7953 67.7449C31.9412 68.0943 32.0534 68.2574 32.0871 68.4437C32.8165 73.4286 35.7116 76.8062 39.7962 79.0773C42.1303 80.3818 44.6888 81.2436 47.18 82.2336C47.7298 82.4549 48.4031 82.3385 49.2447 82.385C48.4255 80.0673 48.2236 77.8777 47.0677 75.9909C44.4644 71.7281 40.5368 69.5385 36.037 68.2108C34.6007 67.7915 33.1868 67.3256 31.7953 66.8947C31.7504 66.1959 31.9973 65.7417 31.4362 65.2641C28.7094 62.958 27.5873 59.7085 26.8018 56.296C26.5661 55.2711 27.1272 54.5373 27.8005 53.8735C27.879 57.4374 29.4837 60.3608 31.4923 63.0978C31.7841 63.5054 32.132 63.948 32.5584 64.1577C34.2304 65.0079 35.8912 65.8814 37.4509 66.9296C37.7651 67.1393 38.1691 67.2208 38.5394 67.3489C40.4583 68.0011 42.2088 68.9911 43.7799 70.2839C44.7673 71.0992 45.6426 72.0542 46.574 72.9511C46.6077 72.8928 46.6525 72.8462 46.6525 72.8113C46.6189 72.59 46.5852 72.3687 46.5067 72.1591C45.609 69.457 44.1277 66.9878 43.6901 64.1111C43.6901 64.0528 43.6452 64.0063 43.6227 63.948C41.5468 59.3126 38.3711 55.8767 33.6244 54.1996C32.233 53.7104 30.8415 53.5008 29.3827 53.8618C28.8553 53.9899 28.2942 53.9201 27.7444 53.9433C27.7893 53.6638 27.8341 53.3843 27.8902 53.0465C27.3292 52.9067 26.8915 51.9051 26.1397 52.8019C25.6572 52.4292 25.0737 52.1381 24.7033 51.6722C23.3343 50.0067 22.0214 48.3062 20.7197 46.5825C20.0128 45.6391 19.4068 44.6258 18.756 43.6475C18.8457 43.5543 18.9355 43.4728 19.0253 43.3796C19.6425 44.0318 20.2709 44.6724 20.888 45.3246C21.5052 45.9768 22.1112 46.6524 22.9079 47.5259C22.6835 46.6407 22.5152 45.9885 22.3468 45.3363C21.9092 43.6125 22.0102 43.3563 23.5924 42.3779C22.1336 41.3064 21.1574 39.8739 20.2709 38.3365C19.6649 37.2883 19.5527 36.1585 19.5639 35.0288C19.5639 34.5745 20.024 33.9573 20.4392 33.736C21.1013 33.3749 21.8868 33.2701 22.7508 33.0255C22.5488 32.6994 22.3468 32.315 22.0887 31.9889C20.6075 30.1371 19.7659 27.9475 18.9467 25.7346C18.8345 25.4201 18.7111 25.0008 18.8233 24.7329C19.2946 23.6148 18.6774 22.9626 18.0715 22.1706C15.614 18.9677 13.437 15.5552 11.5854 11.933C11.4283 11.6302 11.3049 11.304 11.1927 10.9779C11.1478 10.8265 11.1927 10.6518 11.1927 10.0927C11.6977 10.6052 12.0792 10.8848 12.3261 11.2458C13.74 13.319 15.0978 15.4154 16.5117 17.4769C17.7348 19.2589 19.0028 20.9943 20.2596 22.753C20.9217 22.6248 21.4379 22.52 21.9653 22.4152C21.8755 22.1939 21.8531 22.0075 21.797 22.0075C20.3943 21.8678 19.8557 20.6914 19.2609 19.6549C17.9031 17.2789 16.6127 14.8563 15.3222 12.4454C15.1314 12.0844 15.0529 11.6534 15.0417 11.1876C17.0503 12.8997 18.0153 15.3805 19.5751 17.6167C19.8669 15.3339 19.6088 15.6134 22.6049 15.0427C22.2907 14.7632 22.0887 14.4953 21.8194 14.3555C20.4953 13.6916 19.8108 12.4687 19.216 11.1643C18.8794 10.4305 19.2946 9.91806 19.7996 9.56866C20.3943 9.17266 21.0788 8.92807 21.7409 8.6136C20.9329 7.27421 20.0913 5.9581 19.3283 4.59541C18.9692 3.95483 18.6886 3.24437 18.5203 2.52226C18.3857 1.96321 18.4979 1.3576 18.4979 0.763605C18.6325 0.728665 18.7784 0.693704 18.9131 0.67041C19.1263 1.20617 19.3507 1.75359 19.5527 2.28935C20.6861 5.24766 22.4254 7.70515 25.0624 9.41724L25.0175 9.37064C25.7806 10.1743 26.5437 10.9779 27.4638 11.9446C26.9589 11.9446 26.5773 12.0611 26.308 11.9213C25.5674 11.5486 24.8492 11.0944 24.1647 10.6052C22.7508 9.59193 21.5726 9.61525 19.923 10.9197C20.8207 11.7233 21.6848 12.5153 22.56 13.2724C23.4914 14.076 24.434 14.868 25.3766 15.66C25.545 15.7997 25.7133 15.9978 25.9153 16.056C27.6883 16.6267 28.9563 17.8845 30.2355 19.5384C30.3477 18.991 30.4151 18.6416 30.4936 18.2922C31.0547 15.7299 32.031 13.3539 33.6917 11.3506C34.2192 10.7101 34.4436 10.1044 34.1069 9.32408C33.6805 8.3341 33.2541 7.33243 32.8389 6.34244C32.6145 5.79504 32.4013 5.24767 32.1768 4.70026C32.2666 4.63038 32.3676 4.56047 32.4574 4.49059C32.7267 4.63035 33.0746 4.70023 33.2317 4.92152C33.9835 5.98139 34.8027 7.00633 35.3637 8.17102C35.7341 8.93971 35.8912 9.755 36.9909 9.96465C36.2615 10.745 35.6331 11.3623 35.072 12.0261C33.0072 14.4487 31.9636 17.3138 31.728 20.5051C31.6158 22.1706 31.6158 23.8478 31.6494 25.5133C31.6607 26.4101 31.3465 26.9225 30.5273 27.1089C30.5497 26.5498 30.6058 26.0024 30.5722 25.4434C30.5385 24.8727 30.2916 24.2903 30.359 23.7429C30.5946 22.0308 29.8652 20.7963 28.7655 19.6432C26.5437 17.3255 23.7944 16.6965 20.6636 16.615C21.191 18.7697 22.3468 20.3187 23.4241 21.9027C24.1647 22.9975 25.1859 23.7313 26.3641 24.3369C27.8341 25.094 29.1695 26.1422 30.561 27.0739C31.6719 28.1222 32.6482 29.2519 32.7379 30.9989C29.8989 27.5049 26.1621 25.5948 22.1 24.267C21.494 24.069 20.7983 24.1506 19.9342 24.0807C20.0577 24.7911 20.0577 25.3735 20.2596 25.851C21.3145 28.3551 22.6498 30.6728 24.6248 32.5247C25.0175 32.8857 25.5337 33.2119 26.0387 33.3283C29.1022 34.0271 32.0534 34.9705 34.6231 37.1951C34.4099 35.7742 34.1743 34.3649 33.9835 32.944C33.4112 28.786 33.8937 24.7795 35.7453 21.0175C36.2166 20.0508 36.845 19.1424 37.5183 18.3271C37.9222 17.8379 38.113 17.3954 38.0345 16.7897C37.8549 15.3688 37.6642 13.9362 37.4958 12.5153C37.4285 11.9912 37.4061 11.4671 37.5295 10.9197C39.3923 12.9463 38.6741 15.7765 39.7513 18.0593C35.8799 21.0525 35.1842 25.455 34.971 30.0206C34.8476 32.6761 35.1281 35.3083 35.7341 37.8939C35.835 38.3249 35.8463 38.7791 35.9136 39.2333C35.0832 39.5361 34.6905 38.9188 34.2528 38.5578C31.4699 36.2517 28.2942 35.0637 24.7819 34.6677C22.9977 34.4697 21.9092 34.5513 20.2709 35.1918C21.0451 38.3365 23.0201 40.4911 25.6123 42.1217C25.8704 42.2848 26.2631 42.2498 26.5886 42.2382C30.2355 42.0868 33.2878 43.6125 36.0595 45.8953C36.6206 46.3612 37.1704 46.8271 38.012 47.1881C37.7876 46.3728 37.6978 45.476 37.3163 44.7423C36.0931 42.3547 36.2727 39.7924 36.5532 37.2999C36.7664 35.4364 37.4622 33.6428 37.8998 31.8026C38.0232 31.2785 38.0232 30.7078 38.012 30.172C37.9896 28.425 37.8886 26.6663 38.9771 24.9193C39.4371 25.7578 39.2352 26.4101 39.1342 27.0623C39.0444 27.6563 39.0668 28.2619 39.0332 29.019C40.2563 27.7145 41.3897 26.643 42.3435 25.3968C42.6914 24.9426 42.7138 24.069 42.6016 23.4517C42.3884 22.2172 41.9844 21.0059 41.6366 19.7946C41.4907 19.2589 41.2999 18.7348 41.3672 18.0359C41.5917 18.199 41.8946 18.3038 42.0405 18.5251C43.1402 20.1673 43.7911 21.9726 43.9931 23.9642C44.0492 24.4883 44.2624 25.0008 44.4756 25.7695C43.9033 26.1771 43.0953 26.6546 42.4108 27.2719C41.7488 27.8776 41.1316 28.5647 40.6491 29.3218C38.0681 33.3749 37.1031 37.8473 37.6978 42.6691C37.7764 43.2864 37.9783 43.9037 38.1691 44.4977C38.8312 46.501 39.5269 48.5042 40.29 50.7637C40.4807 50.2979 40.6378 50.03 40.6827 49.7621C41.2438 45.9768 42.6465 42.5876 45.0367 39.6293C45.407 39.1751 45.6426 38.5345 45.7324 37.9521C46.3496 34.2834 46.2261 30.6029 45.6314 26.9458C45.5641 26.5498 45.6688 26.0024 45.9456 25.3036C47.8869 29.3567 47.4829 33.4681 47.2922 37.6842C47.7635 37.7075 48.2909 37.7425 49.0764 37.7774C42.8036 42.2848 41.3223 48.7488 41.2214 55.935C40.6603 54.4791 40.5032 52.8835 39.4484 51.6722C38.416 50.4842 37.5856 49.0749 36.4635 47.9801C35.3862 46.9319 34.1182 46.0234 32.794 45.3246C31.425 44.6025 29.9213 44.0202 28.4177 43.7639C26.914 43.4961 25.343 43.7057 23.7832 43.7057C23.5251 44.9519 23.7607 46.07 24.3106 46.9668C25.1634 48.3645 26.1285 49.7271 27.2394 50.9035C28.1932 51.9051 29.4051 52.3361 30.92 52.4642C36.0595 52.93 39.9758 55.6438 42.6353 60.2676C42.8821 60.6869 43.1178 61.1062 43.5105 61.7701C43.7013 60.454 43.7911 59.4407 44.0155 58.4623C44.9357 54.351 46.6413 50.7404 50.2659 48.4576C50.8269 48.1082 50.9953 47.6773 51.0289 47.06C51.1411 44.4628 51.1524 41.8772 50.2659 39.3847C50.1761 39.1168 50.1312 38.8373 50.1088 38.5461C50.1088 38.453 50.1985 38.3481 50.322 38.0802C50.6137 38.3481 51.0065 38.5345 51.1187 38.8257C51.5563 40.002 52.0725 41.1783 52.2296 42.4129C52.4316 43.9386 52.297 45.511 52.3418 47.0716C52.3531 47.5841 52.4653 48.0966 52.5438 48.6673C47.2473 51.2296 45.2274 56.0631 44.9357 61.968C44.8908 62.7717 44.9132 63.587 44.9244 64.3906C44.9469 65.928 44.8571 67.4537 46.1139 68.6883C46.6413 69.2124 46.8097 70.1092 47.1463 70.843C47.3258 71.239 47.539 71.6117 47.8308 72.194C48.3694 70.4237 48.7959 68.8979 49.2896 67.3838C50.0975 64.9147 51.7808 63.0512 53.4079 61.1528C53.4752 61.0713 53.5425 61.0014 53.6211 60.9315L53.7109 60.9664ZM61.0497 326.248C61.4088 326.749 61.7679 327.238 62.127 327.739C62.2167 327.657 62.3177 327.576 62.4075 327.494C61.9923 327.051 61.5771 326.597 61.1507 326.155C59.9724 324.21 58.7269 322.311 57.6159 320.331C54.7657 315.253 51.893 310.14 50.6811 304.317C49.8619 300.38 49.2447 296.385 48.8295 292.39C48.2684 286.951 47.943 281.489 47.6064 276.026C47.1912 269.306 46.9331 262.574 46.473 255.854C46.2149 252.069 45.8109 248.283 45.2835 244.522C44.5092 238.989 43.5779 233.492 42.7026 227.971C41.9844 223.429 41.2326 218.875 39.9309 214.461C38.1467 208.463 36.3064 202.476 34.4436 196.513C31.9973 188.675 29.7979 180.766 28.1035 172.707C27.7556 171.076 27.2618 169.481 26.8466 167.862C27.8678 170.307 28.6196 172.823 29.349 175.351C31.7055 183.515 33.8937 191.738 36.441 199.832C39.3249 208.987 42.0742 218.153 43.7125 227.645C45.3957 237.405 46.8658 247.2 47.6513 257.089C48.2684 264.892 48.5714 272.73 49.0315 280.557C49.1886 283.317 49.2784 286.089 49.5814 288.826C50.0078 292.6 50.5801 296.35 51.1299 300.112C51.5563 303.024 52.0837 305.912 53.2283 308.626C55.5175 314.088 58.2107 319.318 61.6557 324.093C62.2392 324.897 62.9012 325.642 63.5296 326.411C63.5521 325.316 63.3501 324.373 63.0359 323.464C61.3078 318.479 59.5124 313.518 57.8291 308.51C56.2357 303.781 54.7096 299.017 53.9914 294.033C53.1834 288.454 52.3531 282.886 51.4553 277.319C50.524 271.496 50.2883 265.637 50.2995 259.756C50.2995 255.889 50.2546 252.022 49.9853 248.179C49.6038 242.728 49.0091 237.289 48.5041 231.838C47.8869 225.234 46.9668 218.7 45.3284 212.271C44.2848 208.16 43.1739 204.037 42.4557 199.856C41.3111 193.205 39.886 186.648 37.4846 180.347C35.5096 175.153 33.5795 169.935 31.5484 164.764C30.46 161.992 29.2929 159.22 27.4863 156.855C24.3443 152.744 21.1461 148.679 17.9705 144.603C17.8358 144.428 17.6787 144.149 17.5104 144.125C16.6239 143.986 16.4892 143.182 16.1301 142.565C15.6476 141.726 15.1651 140.887 14.6938 140.061C15.2549 142.646 16.0965 145.069 16.9156 147.503C18.7223 152.825 20.6524 158.113 22.302 163.494C24.9053 171.996 27.3179 180.568 29.8428 189.106C31.2904 194.009 32.7379 198.924 33.1307 204.06C33.4 207.671 33.5459 211.305 33.6805 214.927C33.804 218.176 34.365 221.333 35.2179 224.442C36.3288 228.484 37.5295 232.502 37.8437 236.73C38.0232 239.024 38.2364 241.319 38.6068 243.59C39.5157 249.215 40.1778 254.864 40.4022 260.571C40.5368 263.96 41.0194 267.326 41.3785 270.704C41.6814 273.511 42.1079 276.294 42.3211 279.101C42.624 283.061 42.8036 287.033 43.0056 291.004C43.0729 292.39 43.1851 293.776 43.0617 295.151C42.9943 295.873 43.0841 296.478 43.2973 297.142C44.7112 301.417 46.6413 305.423 48.9642 309.243C51.4778 313.378 53.6323 317.78 56.7294 321.508C58.0985 323.15 59.5909 324.687 61.0273 326.259L61.0497 326.248ZM72.6751 337.359C72.8659 336.683 73.0118 336.311 73.0791 335.926C73.7748 331.85 74.4706 327.762 75.1551 323.685C76.4007 316.22 79.0153 309.278 82.5725 302.686C85.894 296.525 89.9338 290.876 94.1194 285.332C101.481 275.572 107.63 265.043 112.994 253.99C115.137 249.565 117.011 244.999 119.087 240.538C122.454 233.329 125.876 226.154 129.321 218.98C132.497 212.364 134.517 205.411 135.156 198.027C135.695 191.773 136.189 185.518 136.851 179.287C137.445 173.615 138.119 167.955 138.96 162.318C140.105 154.689 141.474 147.107 143.673 139.711C143.752 139.455 143.741 139.164 143.774 138.896C143.449 139.105 143.292 139.338 143.213 139.595C141.878 144.102 140.531 148.609 139.218 153.128C137.827 157.938 137.053 162.877 136.323 167.838C135.134 175.863 133.799 183.864 132.418 191.854C131.251 198.609 129.691 205.271 127.582 211.782C125.349 218.654 121.904 224.92 118.347 231.104C113.016 240.364 107.271 249.332 101.29 258.148C98.3499 262.481 95.264 266.72 92.4923 271.181C86.4663 280.883 81.2708 291.074 76.3334 301.417C74.8297 304.561 73.2811 307.694 71.7101 310.792C70.7226 312.726 70.1503 314.729 70.4421 316.942C70.5655 317.909 70.6441 318.887 70.7114 319.865C71.1041 325.607 71.4745 331.361 72.6639 337.359H72.6751ZM96.0719 285.088C96.128 285.146 96.1954 285.204 96.2515 285.262C96.4759 285.041 96.7003 284.82 96.936 284.598C101.009 280.639 104.32 276.003 107.753 271.472C110.593 267.722 112.691 263.576 114.486 259.197C116.675 253.851 119.098 248.598 121.533 243.369C124.092 237.871 126.875 232.49 128.996 226.783C129.433 225.607 129.994 224.489 130.511 223.347C130.455 224.384 130.264 225.351 129.905 226.248C128.345 230.126 126.83 234.028 125.124 237.825C122.521 243.613 119.76 249.332 117.101 255.097C116.45 256.494 115.889 257.95 115.373 259.406C113.667 264.205 111.064 268.444 108.18 272.579C103.848 278.775 99.0232 284.447 93.6144 289.63C92.3464 290.841 91.0784 292.087 90.0348 293.485C85.6696 299.355 82.191 305.784 79.5202 312.656C77.4555 317.979 76.5129 323.616 75.4693 329.206C75.0878 331.233 74.8521 333.283 74.5491 335.321C74.9868 334.971 75.1888 334.575 75.3346 334.144C77.6911 327.308 80.2272 320.541 82.3368 313.623C84.3455 307.03 87.8354 301.452 92.1669 296.339C95.4323 292.483 98.81 288.733 102.075 284.878C106.25 279.94 110.391 274.966 114.498 269.958C119.368 264.03 124.058 257.974 127.829 251.195C132.654 242.53 136.043 233.329 137.625 223.429C138.354 218.887 139.185 214.356 139.791 209.802C140.475 204.736 141.137 199.646 141.474 194.545C141.698 191.109 141.384 187.638 141.272 184.179C141.07 177.936 141.698 171.752 142.372 165.567C142.764 161.91 143.202 158.253 143.494 154.584C143.786 150.904 143.943 147.223 144.133 143.543C144.19 142.53 144.133 141.505 144.133 140.491C143.718 141.318 143.483 142.145 143.303 142.984C140.98 153.548 139.275 164.228 138.242 175.013C137.49 182.863 136.873 190.736 136.189 198.598C135.773 203.385 134.954 208.09 133.193 212.539C131.7 216.324 130.084 220.051 128.412 223.755C124.462 232.455 120.456 241.132 116.461 249.821C111.198 261.293 105.229 272.323 97.8561 282.514C97.239 283.364 96.6667 284.249 96.0719 285.111V285.088ZM108.438 175.595C108.337 175.56 108.236 175.537 108.146 175.502C107.136 178.833 106.048 182.129 105.128 185.483C103.994 189.641 103.018 193.846 101.93 198.015C100.437 203.746 98.8773 209.453 97.4073 215.183C96.4647 218.852 95.7128 222.579 94.7253 226.248C93.3114 231.512 91.7965 236.753 90.2704 241.994C89.0809 246.071 87.9251 250.17 86.5449 254.177C84.7607 259.336 83.2233 264.543 82.3032 269.958C81.686 273.581 80.8668 277.191 79.8008 280.697C78.3981 285.309 76.7149 289.828 75.0653 294.347C74.0442 297.142 72.8996 299.891 71.7438 302.64C70.8012 304.876 70.2289 307.217 69.9147 309.616C69.8473 310.094 70.0269 310.606 70.083 311.107C70.5992 310.559 70.8236 310.035 71.0593 309.523C72.7874 305.598 74.4033 301.603 76.2885 297.759C78.7796 292.681 81.3942 287.65 84.1547 282.723C86.4776 278.565 88.4189 274.256 90.0348 269.76C91.415 265.929 92.9187 262.143 94.5346 258.416C97.6429 251.265 100.785 244.149 102.042 236.322C102.737 232.013 103.557 227.715 104.207 223.394C104.679 220.261 104.87 217.093 105.318 213.96C106.34 206.774 107.047 199.553 107.54 192.32C107.832 188.069 108.157 183.818 108.416 179.555C108.494 178.239 108.427 176.923 108.427 175.595H108.438ZM6.26646 212.318C6.21036 212.353 6.14303 212.388 6.08692 212.423C6.31135 212.982 6.50211 213.564 6.77143 214.1C10.3847 221.391 13.2013 229.031 16.0067 236.672C17.5889 240.969 18.9355 245.36 20.4392 249.693C21.9204 253.932 23.1099 258.23 23.7495 262.702C24.3443 266.825 25.7133 270.715 27.4975 274.466C29.7755 279.264 31.9636 284.121 34.0733 289.013C35.936 293.322 37.7764 297.631 40.0094 301.766C41.3111 304.165 42.3659 306.716 43.4769 309.22C44.5429 311.631 45.508 314.077 46.5403 316.511C47.3258 318.375 48.4704 320.005 49.7497 321.531C51.792 323.965 53.8455 326.376 55.8542 328.845C58.783 332.444 62.4524 335.169 65.9198 338.128C66.739 338.826 67.7377 339.292 68.6466 339.863C68.6915 339.304 68.6018 338.896 68.3773 338.617C65.8862 335.379 63.4848 332.036 60.8253 328.95C57.4588 325.037 53.9802 321.228 51.3768 316.686C50.0078 314.31 48.6275 311.945 47.2248 309.593C44.9806 305.854 43.1627 301.917 41.7712 297.771C40.4807 293.904 39.0893 290.073 37.1592 286.485C34.0733 280.732 32.1544 274.571 31.1445 268.083C30.0223 260.932 27.9015 254.095 25.0624 247.491C23.0313 242.763 20.888 238.081 18.8121 233.364C15.5691 225.98 11.2264 219.294 6.68166 212.737C6.56944 212.574 6.3899 212.458 6.24402 212.318H6.26646ZM64.9099 339.164C64.7752 339.024 64.663 338.861 64.5171 338.733C62.2392 336.625 59.8378 334.634 57.7057 332.386C55.3043 329.835 53.1834 326.993 50.8494 324.373C47.9094 321.077 45.609 317.419 44.0267 313.215C42.7811 309.896 41.2775 306.681 39.785 303.466C38.3599 300.403 36.6093 297.503 35.3637 294.37C32.4574 287.068 29.2817 279.905 25.8816 272.847C24.5126 270.005 23.6934 266.953 23.166 263.809C22.7957 261.596 22.5039 259.348 21.8531 257.217C19.8108 250.578 17.8021 243.928 15.4456 237.417C12.8647 230.301 9.95833 223.324 7.10807 216.324C5.85127 213.25 4.39248 210.268 3.00101 207.263C2.86636 206.96 2.59704 206.727 2.38383 206.459C3.92118 211.584 5.62684 216.569 7.39983 221.531C9.61046 227.68 11.9558 233.806 13.336 240.224C15.1875 248.843 17.6563 257.252 20.5851 265.533C23.3231 273.266 25.7245 281.116 27.1496 289.246C28.1596 295.022 30.1794 300.438 32.9624 305.528C34.9373 309.139 36.9684 312.702 38.9322 316.313C40.6378 319.434 42.5455 322.439 45.003 324.943C48.0103 328.007 51.186 330.907 54.3954 333.748C57.4252 336.439 61.1507 337.825 64.8987 339.176L64.9099 339.164ZM92.885 139.513C92.7391 139.455 92.6045 139.397 92.4586 139.338C92.0098 140.293 91.4936 141.237 91.1233 142.227C88.8902 148.307 86.5898 154.363 84.5026 160.501C81.0127 170.773 77.8034 181.127 75.2449 191.703C72.4507 203.268 69.8698 214.88 67.6255 226.574C67.1654 228.996 66.7727 231.442 66.2116 233.853C65.269 237.883 64.3264 241.936 64.1693 246.094C63.8438 254.619 63.5521 263.145 63.4511 271.682C63.3389 281.023 63.395 290.375 63.5409 299.716C63.6082 304.142 64.0234 308.579 64.3825 312.994C64.6181 315.801 65.0782 318.596 65.3812 321.391C65.7739 325.06 66.1106 328.729 66.4809 332.397C66.6043 333.585 66.6492 333.632 67.7714 334.226C67.3786 328.391 66.3126 322.626 66.537 316.767C66.7727 318.235 66.941 319.714 67.0532 321.181C67.4123 325.84 67.8163 330.487 68.7252 335.065C68.9272 336.101 69.275 337.033 70.3074 337.697C70.2177 336.427 70.1728 335.286 70.0605 334.144C69.5556 328.88 69.0169 323.604 68.512 318.34C68.0743 313.692 67.6479 309.057 67.244 304.41C66.9746 301.312 66.5482 298.214 66.537 295.104C66.5033 286.974 66.638 278.833 66.7278 270.704C66.7502 268.747 66.8175 266.779 66.9634 264.834C67.2888 260.641 67.7377 256.46 68.0519 252.278C68.3324 248.447 68.4895 244.591 68.7364 240.76C68.7925 239.781 68.9721 238.815 69.0506 237.848C69.7463 229.509 71.25 221.298 73.0118 213.145C74.19 207.694 75.7049 202.325 77.0515 196.921C79.2958 187.953 81.2147 178.903 83.9415 170.04C86.3766 162.12 89.3839 154.444 92.0434 146.641C92.7952 144.428 93.7715 142.285 94.6805 140.002H93.3114C92.7616 141.936 92.3352 143.857 91.6843 145.686C89.5859 151.579 87.3977 157.426 85.2544 163.296C83.1336 169.119 80.9117 174.896 79.4978 180.964C79.206 182.199 78.9255 183.434 78.5889 184.645C77.635 188.139 76.5353 191.586 75.7274 195.115C74.4706 200.671 73.3597 206.25 72.2936 211.852C71.7438 214.729 71.5306 217.675 70.9583 220.552C69.8361 226.236 68.5793 231.896 67.3786 237.557L66.9859 237.487C67.2215 235.786 67.4123 234.086 67.7153 232.397C67.9958 230.813 68.4222 229.252 68.714 227.668C69.7576 221.892 70.6889 216.103 71.8111 210.35C72.9332 204.596 74.1788 198.866 75.4805 193.147C76.1426 190.235 77.0515 187.393 77.837 184.517C78.8357 180.86 79.6437 177.133 80.8332 173.545C82.6174 168.211 84.6821 162.993 86.5898 157.706C88.6657 151.929 90.6968 146.14 92.7392 140.34C92.8289 140.095 92.8065 139.804 92.8289 139.525L92.885 139.513ZM70.4084 301.265C70.5206 301.277 70.6441 301.289 70.7563 301.312C70.9134 301.021 71.0817 300.729 71.2164 300.415C72.6751 296.863 74.1115 293.31 75.5703 289.758C78.0839 283.655 80.2272 277.436 81.2484 270.844C81.9216 266.522 82.8081 262.248 84.2782 258.113C86.298 252.441 88.3067 246.781 89.7542 240.899C91.0447 235.658 92.7279 230.522 94.1082 225.304C95.2528 220.972 96.1168 216.569 97.239 212.236C99.2139 204.619 101.267 197.025 103.355 189.443C104.454 185.46 105.689 181.523 106.822 177.552C106.968 177.028 107.338 176.48 106.979 175.653C106.721 176.201 106.53 176.55 106.396 176.911C104.522 182.094 102.592 187.242 100.819 192.46C99.1129 197.515 97.7327 202.686 95.9373 207.706C93.6593 214.076 91.0896 220.331 88.677 226.644C86.9825 231.093 85.03 235.46 83.7283 240.026C81.787 246.863 80.2496 253.827 78.6899 260.781C77.4779 266.15 76.0191 271.461 75.1775 276.935C74.3584 282.269 73.0006 287.51 71.9345 292.798C71.3622 295.605 70.9022 298.435 70.3972 301.254L70.4084 301.265ZM49.8507 85.7626C49.8507 86.2518 49.8282 86.6595 49.8507 87.0555C50.221 92.5295 51.4441 97.8638 52.2745 103.256C53.0937 108.544 54.0138 113.82 54.7208 119.119C55.5287 125.106 56.1684 131.116 56.8417 137.125C57.5262 143.252 58.2107 149.366 58.8166 155.504C59.1421 158.765 59.2879 162.05 59.5572 165.323C59.9276 169.853 60.3315 174.384 60.7243 178.903C61.0273 182.339 61.319 185.786 61.6781 189.222C62.1045 193.345 62.7217 197.445 63.0247 201.579C63.4735 207.729 63.7541 213.89 64.0346 220.04C64.2142 223.895 64.2815 227.762 64.4161 231.628C64.4161 231.908 64.4947 232.199 64.5396 232.479C65.1343 229.846 65.5832 227.249 66.0208 224.652C66.0657 224.372 66.0545 224.081 66.0433 223.79C65.7627 218.502 65.5046 213.203 65.168 207.915C64.966 204.806 64.663 201.708 64.3713 198.621C63.9897 194.603 63.5858 190.596 63.1818 186.59C62.9237 184.074 62.6432 181.558 62.3626 179.031C62.0484 176.282 61.723 173.522 61.3976 170.773L61.7791 170.727C62.4299 176.55 63.0808 182.385 63.7092 188.209C64.3488 194.09 64.9548 199.984 65.572 205.865C65.7515 205.435 65.8301 205.004 65.8188 204.573C65.7291 202.5 65.6505 200.426 65.5046 198.365C65.2578 194.743 64.9997 191.12 64.6742 187.51C64.2029 182.176 63.6643 176.853 63.1481 171.519C62.7217 167.221 62.3402 162.923 61.8128 158.637C60.8702 150.869 59.7817 143.124 58.8727 135.355C57.8852 126.9 57.0661 118.409 56.1347 109.942C55.4839 104.002 54.8891 98.0385 53.7557 92.1684C53.262 89.6294 52.6448 87.1603 51.5115 84.8192C50.9392 85.1337 50.4342 85.4249 49.8394 85.751L49.8507 85.7626ZM94.3214 107.007C93.5695 109.22 92.8401 111.188 92.2342 113.203C90.4949 119.049 90.1694 124.966 91.819 130.894C92.1669 132.129 92.885 133.27 93.4798 134.423C94.4224 136.264 95.8699 136.636 97.8112 136.229C105.678 134.586 112.063 130.347 117.438 124.314C118.167 123.499 118.784 122.59 119.682 121.425C117.224 121.623 115.148 121.623 113.151 121.985C105.745 123.336 99.5506 126.806 95.2415 133.422C94.9947 133.806 94.7927 134.388 93.9959 134.202C94.1418 133.748 94.1979 133.294 94.4224 132.944C95.2191 131.698 95.9597 130.394 96.9248 129.299C97.9908 128.087 98.6304 126.701 98.7987 125.152C99.0456 122.753 99.2252 120.331 99.1915 117.92C99.1578 115.346 98.3723 112.947 96.8911 110.827C96.0831 109.674 95.3313 108.474 94.3326 106.983L94.3214 107.007ZM123.217 107.135C122.297 107.228 121.646 107.344 120.995 107.333C117.842 107.298 115.025 108.323 112.354 110C108.741 112.271 105.7 115.136 103.276 118.735C102.098 120.482 101.862 122.462 101.481 124.745C102.491 124.221 103.242 123.883 103.961 123.464C106.721 121.833 109.583 120.401 112.747 119.935C114.037 119.748 115.003 119.236 115.956 118.386C119.323 115.392 121.59 111.665 123.239 107.146L123.217 107.135ZM100.549 121.589C100.841 121.146 100.998 120.983 101.065 120.785C102.075 117.896 103.882 115.579 105.902 113.412C106.519 112.76 106.979 112.178 106.744 111.165C106.542 110.279 106.598 109.348 106.452 108.451C105.621 103.606 104.275 99.0168 100.179 95.744C99.5394 97.1067 98.7763 98.4461 98.2713 99.8787C97.6878 101.544 97.2838 103.28 96.9135 105.015C96.734 105.842 96.8687 106.646 97.3512 107.472C99.0681 110.396 100.28 113.552 100.527 117.011C100.628 118.421 100.538 119.841 100.538 121.577L100.549 121.589ZM129.433 93.9854C127.615 93.205 125.988 93.5894 124.462 93.8922C120.4 94.6958 116.888 96.769 113.712 99.4594C113.51 99.6341 113.375 99.9136 113.252 100.158C111.849 103.28 110.458 106.413 109.078 109.546C108.965 109.802 108.943 110.105 108.82 110.594C109.223 110.361 109.414 110.268 109.594 110.128C111.905 108.416 114.284 106.844 117.067 106.052C117.37 105.97 117.64 105.725 117.886 105.516C119.11 104.526 120.254 103.443 121.533 102.557C123.868 100.939 125.854 98.947 127.593 96.6758C128.233 95.8372 128.783 94.9288 129.422 93.9737L129.433 93.9854Z" fill="#054B0C" fill-opacity="0.1"/>
</svg>
