<svg width="12" height="18" viewBox="0 0 12 18" fill="none" xmlns="http://www.w3.org/2000/svg">
<path d="M6.10903 17.168C5.00503 17.168 4.01303 16.976 3.13303 16.592C2.26903 16.192 1.58903 15.648 1.09303 14.96C0.597031 14.256 0.341031 13.448 0.325031 12.536H2.65303C2.73303 13.32 3.05303 13.984 3.61303 14.528C4.18903 15.056 5.02103 15.32 6.10903 15.32C7.14903 15.32 7.96503 15.064 8.55703 14.552C9.16503 14.024 9.46903 13.352 9.46903 12.536C9.46903 11.896 9.29303 11.376 8.94103 10.976C8.58903 10.576 8.14903 10.272 7.62103 10.064C7.09303 9.856 6.38103 9.632 5.48503 9.392C4.38103 9.104 3.49303 8.816 2.82103 8.528C2.16503 8.24 1.59703 7.792 1.11703 7.184C0.653031 6.56 0.421031 5.728 0.421031 4.688C0.421031 3.776 0.653031 2.968 1.11703 2.264C1.58103 1.56 2.22903 1.016 3.06103 0.631999C3.90903 0.247999 4.87703 0.0559993 5.96503 0.0559993C7.53303 0.0559993 8.81303 0.447999 9.80503 1.232C10.813 2.016 11.381 3.056 11.509 4.352H9.10903C9.02903 3.712 8.69303 3.152 8.10103 2.672C7.50903 2.176 6.72503 1.928 5.74903 1.928C4.83703 1.928 4.09303 2.168 3.51703 2.648C2.94103 3.112 2.65303 3.768 2.65303 4.616C2.65303 5.224 2.82103 5.72 3.15703 6.104C3.50903 6.488 3.93303 6.784 4.42903 6.992C4.94103 7.184 5.65303 7.408 6.56503 7.664C7.66903 7.968 8.55703 8.272 9.22903 8.576C9.90103 8.864 10.477 9.32 10.957 9.944C11.437 10.552 11.677 11.384 11.677 12.44C11.677 13.256 11.461 14.024 11.029 14.744C10.597 15.464 9.95703 16.048 9.10903 16.496C8.26103 16.944 7.26103 17.168 6.10903 17.168Z" fill="white"/>
</svg>
