<svg width="23" height="22" viewBox="0 0 23 22" fill="none" xmlns="http://www.w3.org/2000/svg">
<path d="M20.0854 5.5834L16.4811 1.9791C16.0943 1.5923 15.5697 1.375 15.0226 1.375H3.50195C2.36285 1.375 1.43945 2.2984 1.43945 3.4375V18.5625C1.43945 19.7016 2.36285 20.625 3.50195 20.625H18.627C19.7661 20.625 20.6895 19.7016 20.6895 18.5625V7.0418C20.6895 6.4948 20.4722 5.97019 20.0854 5.5834ZM11.0645 17.875C9.54568 17.875 8.31445 16.6438 8.31445 15.125C8.31445 13.6062 9.54568 12.375 11.0645 12.375C12.5832 12.375 13.8145 13.6062 13.8145 15.125C13.8145 16.6438 12.5832 17.875 11.0645 17.875ZM15.1895 4.79016V9.10938C15.1895 9.39413 14.9586 9.625 14.6738 9.625H4.70508C4.42032 9.625 4.18945 9.39413 4.18945 9.10938V4.64062C4.18945 4.35587 4.42032 4.125 4.70508 4.125H14.5243C14.6611 4.125 14.7922 4.17931 14.8889 4.27604L15.0384 4.42557C15.0863 4.47344 15.1243 4.53028 15.1502 4.59283C15.1761 4.65539 15.1895 4.72244 15.1895 4.79016Z" fill="#575757"/>
</svg>
