<svg width="23" height="23" viewBox="0 0 23 23" fill="none" xmlns="http://www.w3.org/2000/svg">
<g id="&#240;&#159;&#166;&#134; icon &#34;search&#34;">
<path id="Vector" d="M14.8548 13.4168H14.0977L13.8293 13.158C14.9794 11.8164 15.5735 9.98595 15.2477 8.04053C14.7973 5.37636 12.5739 3.24886 9.8906 2.92303C5.83685 2.42469 2.42518 5.83636 2.92352 9.89011C3.24935 12.5734 5.37685 14.7968 8.04102 15.2472C9.98643 15.573 11.8168 14.9789 13.1585 13.8289L13.4173 14.0972V14.8543L17.4902 18.9272C17.8831 19.3201 18.5252 19.3201 18.9181 18.9272C19.311 18.5343 19.311 17.8922 18.9181 17.4993L14.8548 13.4168ZM9.10477 13.4168C6.71852 13.4168 4.79227 11.4905 4.79227 9.10428C4.79227 6.71803 6.71852 4.79178 9.10477 4.79178C11.491 4.79178 13.4173 6.71803 13.4173 9.10428C13.4173 11.4905 11.491 13.4168 9.10477 13.4168Z" fill="#575757"/>
</g>
</svg>
