<svg width="106" height="414" viewBox="0 0 106 414" fill="none" xmlns="http://www.w3.org/2000/svg">
<path d="M103.307 179.525C104.149 179.677 104.295 180.329 104.351 181.051C104.632 184.708 105.069 188.365 105.148 192.034C105.249 197.077 105.148 202.144 105.002 207.187C104.845 212.94 104.082 218.624 103.061 224.284C102.129 229.456 101.052 234.603 100.21 239.798C99.4249 244.631 99.1219 249.523 99.5595 254.426C99.9298 258.666 100.345 262.894 100.861 267.122C101.523 272.596 101.389 278.058 100.67 283.497C99.8289 289.926 99.7279 296.332 101.007 302.703C101.568 305.51 102.286 308.293 102.825 311.112C103.801 316.213 103.947 321.35 103.218 326.509C102.522 331.401 101.826 336.293 101.31 341.208C100.805 345.983 101.052 350.758 101.501 355.533C102.084 361.729 102.724 367.914 102.23 374.157C101.759 380.096 100.356 385.815 98.1232 391.278C96.2716 395.82 93.5336 399.803 90.3243 403.46C88.1024 405.988 85.6898 408.282 83.0527 410.297C81.5378 411.462 79.8546 412.382 78.2387 413.407C78.0704 413.511 77.846 413.57 77.6552 413.57C76.5892 413.57 75.5119 413.523 74.4459 413.5C71.4273 413.407 68.6556 412.498 65.9176 411.147C61.0923 408.771 56.6823 405.778 52.7884 402.063C50.1514 399.547 47.75 396.74 45.4608 393.875C39.8837 386.91 34.1047 380.143 28.2246 373.469C24.3645 369.09 21.1327 364.245 18.2263 359.144C17.5979 358.049 16.947 356.954 16.285 355.883C12.6156 350.036 10.2366 343.583 7.99232 337.073C5.48993 329.817 3.00997 322.549 0.541249 315.282C0.372927 314.804 0.339275 314.28 0.238281 313.767C1.20333 313.36 1.75315 313.919 2.31423 314.338C4.25554 315.771 5.87145 317.553 7.34146 319.474C10.4947 323.597 13.6255 327.744 16.8012 331.855C22.0752 338.668 26.878 345.82 31.4901 353.134C35.3166 359.202 38.5035 365.631 41.7241 372.048C44.0918 376.777 46.9308 381.203 49.826 385.594C52.3508 389.426 55.0103 393.141 58.2196 396.367C60.9801 399.139 63.8977 401.748 66.7704 404.392C68.0272 405.545 69.3625 406.616 70.855 407.513C69.6206 406.232 68.4199 404.928 67.1631 403.681C61.126 397.672 56.5027 390.625 53.0016 382.775C50.5554 377.278 48.1876 371.722 45.7862 366.202C44.4733 363.197 43.1379 360.204 41.8363 357.199C38.38 349.186 35.1371 341.079 32.5673 332.717C31.1198 328.012 29.7059 323.283 28.4603 318.519C27.2708 313.954 26.6873 309.248 26.0477 304.555C25.3071 299.185 24.4879 293.816 23.5116 288.482C22.9169 285.256 22.0079 282.076 21.1776 278.908C20.1676 275.065 19.1128 271.233 18.0468 267.401C17.654 265.969 17.1827 264.559 16.7675 263.138C16.6665 262.789 16.588 262.44 16.7226 261.997C17.2725 263.301 17.9345 264.559 18.3385 265.899C19.9993 271.431 21.6264 276.975 23.175 282.542C24.4093 286.991 25.1836 291.557 25.812 296.146C26.5077 301.142 27.2484 306.139 28.1012 311.112C29.0887 316.819 30.424 322.456 32.2756 327.93C34.3179 333.998 36.2929 340.101 38.5596 346.088C40.4673 351.131 42.7452 356.022 44.8773 360.972C47.5368 367.133 50.1738 373.306 52.8894 379.444C55.0664 384.383 57.5463 389.169 60.6098 393.584C63.3703 397.567 66.6469 401.096 70.0471 404.497C70.1032 404.555 70.2154 404.543 70.5071 404.625C69.8339 403.518 69.2952 402.505 68.6444 401.585C67.0173 399.302 65.7829 396.81 64.6495 394.236C60.6322 385.093 56.9516 375.799 53.4954 366.411C51.8346 361.892 49.8484 357.502 48.1428 353.006C44.406 343.164 40.7141 333.299 37.0671 323.411C35.2044 318.345 33.7905 313.127 32.4327 307.886C29.9191 298.184 27.2371 288.529 23.7921 279.118C22.5241 275.635 21.5366 272.048 20.3471 268.531C19.4158 265.771 18.5405 262.975 16.6441 260.693C16.2738 260.25 16.083 259.633 15.7576 258.969C16.8348 258.678 17.3061 259.237 17.7662 259.796C19.9095 262.381 21.9294 265.072 23.5228 268.065C28.9091 278.174 33.9588 288.447 38.2454 299.116C40.6468 305.102 42.7789 311.205 44.9334 317.285C46.9869 323.073 49.0405 328.862 50.8359 334.743C52.1376 338.995 53.069 343.374 54.0565 347.718C55.6275 354.66 57.4117 361.531 59.4203 368.345C60.823 373.12 62.1023 377.93 63.4937 382.717C64.9862 387.853 66.2093 393.094 68.678 397.87C69.8002 400.024 70.956 402.156 72.1791 404.252C72.6055 404.986 73.2452 405.592 73.795 406.255C73.8848 406.197 73.9746 406.139 74.0643 406.081C73.8736 405.277 73.6379 404.473 73.4808 403.658C72.7963 399.896 72.123 396.134 71.4497 392.372C71.0907 390.392 70.7428 388.401 70.3725 386.421C69.8675 383.707 69.385 380.982 68.8576 378.268C67.9374 373.528 66.9387 368.799 66.0971 364.035C65.4463 360.32 64.9188 356.57 64.4587 352.819C64.1109 350.024 63.9201 347.206 63.7294 344.387C63.4039 339.67 63.2581 334.93 62.8092 330.213C62.3828 325.717 61.7656 321.233 61.0923 316.772C60.6098 313.569 59.9141 310.401 59.2744 307.222C58.4553 303.215 57.5576 299.232 56.7608 295.226C56.3008 292.931 55.9641 290.613 55.5377 288.319C54.3931 282.099 53.3158 275.857 52.766 269.544C52.4518 265.887 52.2834 262.218 52.0029 258.561C51.7224 254.904 51.4418 251.235 51.094 247.59C50.5329 241.661 49.927 235.722 49.321 229.793C48.816 224.82 48.3223 219.835 47.7275 214.874C47.1665 210.226 46.4259 205.603 45.8536 200.956C45.1578 195.295 45.1241 189.611 45.2364 183.916C45.3374 178.232 45.4047 172.549 45.3037 166.865C45.2364 162.987 44.8436 159.12 44.5968 155.253C44.5294 154.24 44.5631 153.227 44.406 152.225C44.2489 151.188 43.9347 150.175 43.6878 149.15C43.34 147.706 42.9921 146.273 42.6105 144.841C42.4422 144.189 42.2178 143.536 41.9934 142.838C39.5134 143.793 37.3252 143.164 35.2605 141.964C33.9251 141.184 32.6571 140.275 31.3891 139.378C30.9514 139.064 30.6036 138.621 30.3006 138.121C32.2082 138.295 33.4538 139.891 35.1932 140.403C32.5112 137.748 30.0874 134.894 27.9104 131.808C27.8207 131.68 27.8992 131.412 27.888 131.132C28.6174 131.156 28.9091 131.703 29.2794 132.087C31.3666 134.277 33.4202 136.525 35.5523 138.668C36.8652 139.996 38.4249 140.869 40.3662 140.508C40.3887 140.357 40.4448 140.205 40.4111 140.182C37.819 138.272 36.4275 135.512 35.4961 132.472C34.6321 129.63 33.869 126.753 33.6334 123.76C33.5099 122.211 33.7007 121.745 34.8116 120.883C34.9351 121.978 35.0697 123.049 35.1932 124.121C35.5971 127.522 36.4612 130.795 37.6507 133.974C38.5708 136.42 40.1418 138.365 42.1393 139.926C42.532 140.229 43.138 140.24 43.6542 140.368C44.1816 140.508 44.709 140.706 45.2476 140.741C45.8536 140.776 46.482 140.729 47.0879 140.601C48.5916 140.287 50.0841 139.926 51.5765 139.565C51.8683 139.495 52.16 139.344 52.3957 139.157C55.9304 136.408 59.3193 133.497 62.4165 130.212C64.5598 127.941 65.8278 125.181 66.7704 122.223C66.9275 121.733 67.0958 121.233 67.5447 120.743C67.6232 121.116 67.7579 121.489 67.7691 121.862C67.8589 124.936 66.8041 127.65 64.8964 129.91C61.1709 134.359 56.9291 138.179 51.8346 140.904C51.1613 141.265 50.5329 141.661 50.0616 142.791C50.8696 142.546 51.397 142.418 51.8907 142.232C55.3806 140.904 58.4889 138.808 61.5524 136.676C66.2093 133.427 70.4959 129.712 74.2663 125.391C74.4347 125.193 74.6366 125.029 74.9621 124.715C74.9845 125.554 74.6815 126.066 74.3785 126.602C72.8973 129.141 70.9111 131.226 68.7229 133.089C63.7967 137.305 58.5114 140.916 52.4742 143.397C53.6861 143.583 54.1462 143.548 55.2235 143.152C58.7022 141.894 61.7656 139.879 64.7281 137.666C66.4786 136.362 68.2179 135.046 69.9685 133.753C70.3725 133.45 70.8213 133.217 71.5058 132.798C70.9448 134.335 69.9461 135.104 69.0708 135.908C65.4911 139.215 61.6085 142.092 57.0863 143.851C55.6163 144.422 54.0228 144.678 52.4518 144.899C51.4531 145.039 50.3983 144.899 49.7362 143.699C49.6576 144.084 49.5566 144.34 49.5566 144.596C49.4444 147.892 49.3434 151.188 49.2424 154.496C49.2312 154.915 49.2424 155.346 49.2761 155.777C49.6576 160.389 50.1065 165.002 50.4207 169.614C50.7237 173.958 50.8696 178.314 51.1164 182.67C51.1838 183.788 51.3857 184.895 51.4531 186.001C51.7897 190.939 52.0478 195.878 52.4293 200.804C52.7996 205.742 53.17 210.669 53.731 215.584C54.5502 222.887 55.4703 230.178 56.4578 237.445C57.1872 242.873 58.0176 248.289 58.949 253.681C59.3642 256.08 60.2732 258.386 60.722 260.774C61.4065 264.431 62.0125 268.1 62.4165 271.804C63.1795 278.897 63.7406 286.001 64.4587 293.094C64.7729 296.216 65.2667 299.314 65.6931 302.412C65.7829 303.029 65.9624 303.635 66.3552 304.217C66.2766 303.507 66.1644 302.808 66.1083 302.097C65.6931 296.53 65.1208 290.963 64.9076 285.384C64.672 279.281 64.7056 273.166 64.7393 267.063C64.7617 262.125 64.8066 257.175 65.1208 252.248C65.5136 245.994 66.1195 239.751 66.7704 233.509C67.6008 225.531 68.4985 217.552 69.4972 209.586C70.4847 201.713 72.5158 194.061 74.4796 186.397C77.0156 176.532 80.9207 167.214 84.8706 157.909C86.4416 154.205 87.8668 150.431 89.4153 146.728C90.313 144.585 91.3566 142.5 92.2992 140.368C92.5461 139.809 92.9501 139.611 93.3877 139.833C93.657 139.972 93.8815 140.497 93.8815 140.834C93.8815 143.432 93.7019 146.04 93.7692 148.638C93.859 152.167 93.4999 155.649 92.9501 159.108C91.9514 165.351 90.9415 171.594 89.9427 177.836C88.8094 184.883 88.5176 191.999 88.4839 199.127C88.4615 203.11 88.4054 207.093 88.4166 211.077C88.4166 211.974 88.5962 212.87 88.6747 213.779C89.0226 217.867 89.4265 221.943 89.6734 226.031C89.7856 227.988 89.6061 229.956 89.5387 231.925C89.5387 232.227 89.4153 232.519 89.0899 232.833C89.0001 232.193 88.8767 231.552 88.8206 230.911C88.3493 225.927 87.8892 220.953 87.4291 215.968C86.9354 210.611 86.9017 205.242 87.1037 199.872C87.2496 196.099 87.2047 192.314 87.4179 188.552C87.7994 181.75 88.944 175.041 90.0549 168.321C90.7731 163.977 91.5923 159.632 92.0523 155.242C92.4114 151.829 92.2768 148.347 92.3554 144.899C92.3554 144.759 92.2768 144.608 92.1534 144.13C91.2444 146.25 90.1672 147.962 89.9764 150.082C89.3592 156.907 88.7981 163.755 88.0463 170.569C86.8793 181.074 85.5888 191.58 84.2983 202.074C83.7934 206.127 83.0976 210.157 82.559 214.21C81.8408 219.591 81.594 225.006 81.3134 230.422C80.8421 239.553 80.2474 248.673 79.7312 257.804C79.4731 262.265 79.3048 266.726 79.0355 271.186C78.6988 276.858 78.3734 282.542 77.9021 288.214C77.543 292.593 77.6777 296.938 78.4183 301.247C79.5068 307.583 79.4843 313.954 79.3048 320.336C79.1589 325.438 79.1028 330.539 79.0579 335.64C79.0242 339.309 79.0242 342.978 79.0916 346.647C79.1477 350.152 79.3048 353.658 79.417 357.164C79.5068 360.134 79.5516 363.115 79.6863 366.085C79.7648 367.727 79.9668 369.37 80.1351 371.012C80.7748 377.476 81.4256 383.928 82.0765 390.392C82.1326 390.916 82.1999 391.429 82.5141 391.953C82.5926 390.649 82.6824 389.344 82.761 388.04C83.0864 382.205 83.4792 376.369 83.726 370.534C83.9056 366.062 83.4679 361.601 82.9742 357.164C82.2111 350.257 82.3233 343.362 83.3669 336.49C84.3095 330.341 85.3531 324.215 86.307 318.077C87.1486 312.649 87.3842 307.175 86.9578 301.69C86.4977 295.75 85.8806 289.821 85.5215 283.881C84.8706 272.875 85.1624 261.904 86.711 250.956C88.1024 241.149 90.2233 231.517 92.2544 221.85C93.5448 215.666 94.6108 209.423 95.9462 203.25C97.2928 197.019 98.8414 190.846 100.289 184.638C100.704 182.88 101.074 181.109 101.467 179.351C101.523 179.094 101.591 178.826 101.68 178.582C101.972 177.755 102.601 177.336 103.162 177.569C103.835 177.848 103.913 178.535 103.375 179.549C103.15 180.422 102.892 181.284 102.69 182.157C101.916 185.523 101.243 188.913 100.379 192.244C98.2242 200.571 96.4736 208.98 94.8577 217.436C93.3877 225.1 91.6372 232.717 90.1784 240.38C88.5962 248.731 87.272 257.117 86.8232 265.631C86.4529 272.654 86.6548 279.665 87.0139 286.677C87.2496 291.289 87.6984 295.901 88.0463 300.513C88.5513 307.129 88.0912 313.686 87.0027 320.208C86.1499 325.344 85.297 330.481 84.4891 335.617C83.5689 341.51 83.2098 347.45 83.6475 353.413C83.9056 356.908 84.3095 360.39 84.5901 363.884C84.9828 368.834 84.5564 373.772 84.2983 378.699C83.9841 384.592 83.7373 390.486 83.3782 396.367C83.1986 399.314 83.2996 402.319 82.0316 405.091C81.9867 405.196 82.0765 405.382 82.1662 405.848C82.559 405.044 82.8732 404.52 83.0752 403.949C83.827 401.853 84.5901 399.768 85.2521 397.648C86.3406 394.154 87.7321 390.753 88.1248 387.073C88.3493 384.965 88.4951 382.834 88.7196 380.725C89.3816 374.541 90.0213 368.356 90.7619 362.184C91.7269 354.217 92.793 346.262 93.8029 338.307C94.4201 333.451 94.7455 328.571 94.4425 323.667C94.2742 320.907 93.8478 318.17 93.5224 315.421C93.1296 312.044 92.6359 308.666 92.3665 305.277C92.0523 301.247 92.0748 297.194 91.6708 293.176C91.1659 288.214 91.3679 283.299 91.9963 278.384C92.7818 272.176 92.9389 265.98 91.8504 259.796C91.1546 255.824 91.1546 251.853 91.9289 247.893C93.2643 241.067 94.5772 234.231 96.0023 227.429C97.0459 222.444 98.4037 217.517 99.3688 212.521C100.558 206.313 101.512 200.059 102.488 193.816C103.027 190.403 103.465 186.979 103.824 183.543C103.958 182.204 104.037 180.783 103.296 179.525H103.307ZM89.2806 151.084C88.9216 151.841 88.6859 152.283 88.5064 152.749C87.9117 154.217 87.3393 155.707 86.7334 157.175C84.9155 161.577 83.0527 165.957 81.2685 170.382C78.4071 177.464 76.2974 184.801 74.4347 192.22C72.5494 199.744 71.0345 207.338 70.148 215.06C69.2279 223.085 68.3638 231.121 67.5335 239.157C67.0958 243.432 66.6133 247.718 66.4337 252.016C66.1308 259.178 65.9288 266.365 65.9176 273.539C65.9063 279.491 66.1869 285.442 66.3776 291.405C66.4786 294.48 66.6918 297.555 66.8489 300.641C67.0621 304.834 67.4324 309.039 67.4324 313.232C67.4324 317.518 68.117 321.711 68.7341 325.903C69.4074 330.422 70.3949 334.895 71.0121 339.414C72.022 346.728 72.8412 354.077 73.7501 361.403C74.2888 365.724 74.8611 370.045 75.3773 374.378C75.9496 379.235 76.3872 384.115 77.0044 388.971C77.6552 394.038 78.4407 399.081 79.1926 404.124C79.3496 405.172 79.5629 406.22 79.7536 407.257C80.2361 406.698 80.4381 406.151 80.7075 405.638C81.392 404.334 81.6725 402.994 81.3022 401.503C81.1002 400.688 81.0666 399.815 80.9992 398.964C80.5953 394.143 80.2362 389.321 79.7985 384.499C79.4394 380.632 78.8783 376.777 78.6202 372.899C78.306 368.123 78.1939 363.337 78.048 358.561C77.8909 353.25 77.6552 347.928 77.7113 342.617C77.7899 334.907 78.0928 327.208 78.306 319.509C78.4295 314.99 78.5978 310.46 78.0816 305.952C77.7674 303.262 77.2961 300.583 76.9819 297.893C76.5218 293.909 76.8361 289.926 77.1054 285.943C77.4532 280.853 77.7674 275.764 78.0592 270.662C78.3397 265.887 78.5754 261.112 78.8559 256.325C79.2711 249.535 79.7087 242.745 80.1351 235.954C80.5279 229.852 80.786 223.737 81.3471 217.657C81.7735 213.115 82.6488 208.619 83.2211 204.089C84.4554 194.34 85.6337 184.58 86.8007 174.82C87.6984 167.331 88.54 159.83 89.3929 152.33C89.4265 152.039 89.3255 151.724 89.247 151.06L89.2806 151.084ZM104.284 190.601C104.194 190.625 104.104 190.636 104.026 190.66C103.981 190.753 103.913 190.834 103.902 190.928C103.061 196.6 102.309 202.295 101.344 207.944C100.547 212.602 99.5146 217.215 98.5833 221.85C97.5845 226.788 96.5522 231.727 95.5759 236.677C94.6782 241.207 93.758 245.738 92.9613 250.28C92.4451 253.227 92.7032 256.197 93.1072 259.167C93.5448 262.37 93.9937 265.619 93.9937 268.845C93.9937 272.549 93.6009 276.276 93.197 279.968C92.7032 284.487 92.6471 288.983 93.0623 293.502C93.3541 296.728 93.4326 299.978 93.6346 303.215C93.7805 305.545 93.9039 307.897 94.1732 310.215C94.5772 313.593 95.2168 316.947 95.531 320.336C95.8228 323.399 96.1145 326.521 95.9013 329.572C95.4413 336.351 94.7343 343.129 94.0049 349.884C93.0511 358.701 91.9626 367.518 90.9527 376.323C90.515 380.12 90.3579 383.975 89.7183 387.737C88.6523 393.991 86.5538 399.943 84.1412 405.778C83.9953 406.139 83.8607 406.5 83.6026 407.152C84.13 406.873 84.433 406.791 84.635 406.593C85.6561 405.626 86.6661 404.648 87.6423 403.623C92.3553 398.662 95.9911 393.036 98.0558 386.328C100.165 379.491 101.03 372.538 100.536 365.398C100.177 360.25 99.7503 355.102 99.4024 349.954C99.1556 346.286 99.3463 342.617 99.784 338.971C100.278 334.86 100.839 330.749 101.445 326.649C102.387 320.348 101.995 314.152 100.424 308.002C99.8737 305.848 99.3912 303.658 99.0209 301.468C98.1344 296.134 98.0671 290.776 98.8189 285.419C99.8962 277.779 99.8289 270.161 98.7067 262.533C98.1232 258.538 97.7304 254.508 97.7978 250.455C97.9212 243.397 99.2566 236.514 100.67 229.642C101.77 224.343 102.937 219.055 103.521 213.651C104.216 207.291 104.183 200.921 104.351 194.538C104.385 193.222 104.306 191.906 104.273 190.59L104.284 190.601ZM44.7651 143.466C44.7763 144.724 44.7314 145.679 44.81 146.611C45.3486 152.656 45.9433 158.689 46.482 164.734C46.6054 166.166 46.6278 167.599 46.6166 169.031C46.583 174.505 46.5381 179.98 46.4483 185.454C46.3361 192.011 46.7176 198.533 47.6153 205.032C48.4233 210.937 49.2873 216.83 50.0055 222.747C50.6339 227.976 51.0379 233.229 51.6214 238.47C52.4181 245.715 53.1587 252.959 53.5403 260.25C53.8994 267.005 54.4716 273.749 55.5938 280.422C56.3793 285.081 57.2321 289.74 58.1186 294.387C58.848 298.242 59.5662 302.109 60.4639 305.929C61.7544 311.415 62.8765 316.947 63.4601 322.549C64.2119 329.735 64.6271 336.968 65.1881 344.177C65.2891 345.505 65.435 346.821 65.5809 348.149C65.9849 352.062 66.243 355.999 66.8602 359.877C67.6008 364.594 68.6332 369.265 69.5645 373.947C70.7652 379.98 72.0108 386.013 73.2227 392.046C73.4247 393.036 73.5818 394.038 73.7614 395.039C73.8511 394.434 73.8399 393.851 73.7726 393.269C72.8637 384.965 71.7303 376.696 70.3613 368.461C69.4074 362.743 68.5546 357.001 67.8813 351.247C66.9051 342.943 66.1644 334.615 65.2779 326.311C64.8403 322.235 64.3353 318.17 63.763 314.117C63.2132 310.169 62.4614 306.243 61.9227 302.295C61.0811 296.018 60.6435 289.705 59.6223 283.439C58.7134 277.825 58.0625 272.165 57.378 266.516C56.9404 262.824 56.7496 259.085 56.2671 255.405C55.5153 249.651 54.5278 243.944 53.7759 238.191C53.2373 234.033 52.8894 229.84 52.4855 225.659C52.0478 221.046 51.6663 216.434 51.2623 211.822C51.2287 211.403 51.2286 210.972 51.2174 210.553C50.9593 205.51 50.8135 200.455 50.4207 195.412C49.9157 188.994 49.1976 182.588 48.614 176.183C48.2998 172.735 48.0418 169.288 47.7837 165.84C47.3124 159.632 46.8635 153.436 46.4034 147.228C46.3585 146.6 46.2575 145.971 46.179 145.33C47.9071 156.802 48.2886 168.414 49.6913 179.921C49.4893 167.715 48.4008 155.579 47.447 143.478C46.4258 143.175 45.8087 144.433 44.7763 143.478L44.7651 143.466ZM20.7736 266.504C20.695 266.551 20.6277 266.586 20.5491 266.632C22.0865 271.163 23.5565 275.729 25.1948 280.224C28.0563 288.039 30.323 296.052 32.5561 304.066C34.0149 309.33 35.3166 314.653 37.1233 319.789C40.7478 330.131 44.6304 340.369 48.4906 350.618C50.3309 355.522 52.3845 360.332 54.3033 365.2C57.176 372.479 60.0038 379.782 62.8653 387.061C63.3366 388.273 63.9314 389.437 64.47 390.614C64.5598 390.078 64.4363 389.624 64.3017 389.181C62.4726 382.868 60.7332 376.533 58.8032 370.243C56.1549 361.578 53.9443 352.785 51.8571 343.956C50.7574 339.321 49.5342 334.697 48.0754 330.166C46.5268 325.321 44.6529 320.592 42.9135 315.829C39.7828 307.222 36.7754 298.568 32.803 290.322C29.2346 282.903 25.8457 275.379 21.806 268.205C21.4805 267.622 21.1102 267.063 20.7623 266.493L20.7736 266.504ZM72.7065 412.021C72.7178 411.951 72.729 411.893 72.7402 411.823C70.0919 410.041 67.4437 408.247 64.7842 406.477C62.5287 404.974 60.5088 403.157 58.7021 401.119C54.7746 396.693 50.9257 392.198 46.9645 387.818C43.5307 384.021 39.9398 380.364 36.5061 376.567C31.1534 370.674 26.7546 364.152 23.7921 356.581C21.6825 351.201 18.8884 346.169 15.8249 341.312C13.2103 337.166 10.7079 332.973 8.54216 328.547C6.60085 324.564 4.48 320.674 2.41525 316.749C2.28059 316.493 2.05614 316.295 1.86537 316.074C2.14591 317.506 2.61722 318.845 3.09974 320.173C5.70312 327.499 8.31773 334.825 10.9211 342.151C12.6268 346.961 14.8823 351.492 17.5306 355.801C20.1788 360.099 22.5129 364.618 25.7222 368.519C28.3256 371.676 30.8953 374.855 33.6446 377.86C37.3589 381.913 40.759 386.246 44.2377 390.509C46.6839 393.514 49.2424 396.425 51.7785 399.36C54.3707 402.365 57.6922 404.438 60.8118 406.756C63.4152 408.69 66.4225 409.843 69.3177 411.17C70.3613 411.648 71.5619 411.753 72.6953 412.021H72.7065ZM54.7522 394.609C54.8195 394.527 54.8756 394.445 54.943 394.364C54.8756 394.236 54.8307 394.084 54.741 393.968C52.1376 390.416 49.3883 386.968 46.9532 383.288C44.4621 379.526 42.2178 375.578 39.996 371.629C37.6731 367.495 35.642 363.185 33.2518 359.097C28.3817 350.758 22.973 342.803 17.1827 335.128C13.2664 329.933 9.28279 324.797 5.32161 319.626C5.17573 319.439 4.99618 319.276 4.82786 319.102C4.7942 319.533 4.9513 319.835 5.1084 320.138C5.81535 321.431 6.60085 322.689 7.24047 324.017C10.1356 330.026 13.4459 335.757 17.0144 341.359C19.8197 345.75 22.1763 350.409 24.3196 355.207C25.913 358.771 27.5289 362.358 29.5375 365.678C32.904 371.245 37.2916 375.974 41.7016 380.667C44.709 383.87 47.7275 387.061 50.7237 390.264C52.0703 391.708 53.4056 393.164 54.7522 394.609ZM53.0802 219.777C52.9904 219.777 52.9007 219.789 52.7997 219.8C52.7884 220.056 52.7436 220.301 52.766 220.557C53.1026 224.214 53.3383 227.883 53.8208 231.517C54.6961 238.156 55.7846 244.771 56.6486 251.41C57.2882 256.313 57.681 261.24 58.2308 266.155C58.7021 270.383 59.2183 274.611 59.7794 278.827C60.5313 284.417 61.3729 289.984 62.1247 295.563C62.4277 297.823 62.5174 300.129 62.8429 302.388C63.4264 306.442 64.1894 310.46 64.7169 314.524C65.5697 321.117 66.3552 327.72 67.0621 334.336C67.8813 341.895 68.2628 349.5 69.688 356.989C70.2827 360.122 70.4847 363.325 70.9672 366.47C71.7864 371.769 72.7626 377.045 73.5481 382.356C74.1204 386.141 74.401 389.973 74.9845 393.758C75.6129 397.846 76.4433 401.911 77.1951 405.976C77.1951 406.034 77.341 406.069 77.442 406.127C77.2512 404.473 77.0829 402.843 76.8585 401.224C76.1179 395.855 75.2987 390.486 74.6254 385.105C74.2775 382.368 74.2215 379.584 73.9185 376.847C73.0656 369.067 72.224 361.298 71.259 353.542C70.4847 347.264 69.5758 340.998 68.6556 334.732C67.9599 330.003 67.0509 325.309 66.4113 320.569C65.3004 312.346 64.4363 304.089 63.2693 295.866C62.1584 288.005 61.6646 280.096 61.0362 272.2C60.722 268.275 60.419 264.326 59.3418 260.541C58.1074 256.243 57.1087 251.922 56.5925 247.473C56.3232 245.144 55.9978 242.826 55.6836 240.508C55.2572 237.352 54.7746 234.196 54.3707 231.039C53.8994 227.301 53.4842 223.551 53.0353 219.8L53.0802 219.777ZM55.6611 395.494C59.2071 400.234 63.0448 404.345 68.1057 406.791C64.0548 403.111 59.9141 399.36 55.6611 395.494ZM77.8123 407.467C77.4308 407.898 77.0492 408.34 76.5892 408.853C76.8024 409.517 77.038 410.285 77.2737 411.054C77.3971 411.042 77.5205 411.031 77.644 411.019C78.2612 409.866 77.9806 408.631 77.8123 407.467ZM75.6129 405.3C75.6129 405.3 75.6466 405.3 75.669 405.3C75.6129 404.788 75.5456 404.275 75.4895 403.763H75.4333C75.4895 404.287 75.5568 404.8 75.6129 405.312V405.3Z" fill="#054B0C" fill-opacity="0.1"/>
<path d="M45.0782 76.1593C45.2578 75.7982 45.4261 75.4255 45.6505 74.9596C45.7403 75.0761 45.83 75.146 45.83 75.2158C45.7627 77.452 45.5832 79.6766 45.6393 81.9012C45.7403 85.7913 46.0769 89.658 47.4123 93.3501C47.5694 93.7927 47.7601 94.2585 48.0631 94.5846C48.8711 95.4698 49.8249 96.2152 50.5767 97.147C51.2949 98.0321 51.8335 99.0803 52.5068 100.152C54.4145 94.1537 58.3195 90.5781 64.5362 89.3785C65.4003 87.0957 66.0624 84.4868 66.6571 81.8546C67.2406 79.2457 67.4763 76.5902 67.5212 73.8881C68.9351 76.4737 68.4862 79.1874 68.2618 81.9245C69.1595 80.5851 69.9001 79.1642 70.4948 77.685C72.0097 73.8998 73.4573 70.0912 74.9385 66.2944C75.4323 65.0132 75.9373 63.732 76.4647 62.4625C76.6891 61.9384 76.9472 61.4026 77.8561 61.3328C77.3287 64.4075 76.1841 67.1911 75.2191 69.9864C74.2204 72.8865 73.0085 75.7167 71.7404 78.5119C70.5061 81.2257 69.0697 83.8345 67.8354 86.5716C73.9735 81.1558 78.8885 74.7383 82.412 67.1795C82.7262 68.9382 82.1091 70.4523 81.4694 71.9314C79.6179 76.2292 76.8013 79.8047 73.6705 83.1358C72.2454 84.6615 70.6968 86.0708 69.1146 87.4101C68.3515 88.0624 67.3865 88.4467 66.1858 89.1456C65.6921 89.9375 65.8155 91.7311 64.0088 92.2553C63.9527 91.7428 63.9078 91.405 63.8629 91.0556C63.7507 91.0323 63.6385 90.9741 63.56 91.0091C59.5427 92.5814 56.3446 95.2019 54.1564 99.0804C53.3709 100.466 53.1128 101.887 53.6065 103.506C54.5491 106.581 54.6052 109.679 53.427 112.731C53.3484 112.917 53.3372 113.138 53.3035 113.336C53.3035 113.371 53.3596 113.418 53.4158 113.511C54.1115 112.731 54.7736 111.927 55.503 111.181C57.4218 109.225 59.509 107.548 62.1124 106.662C62.4603 106.546 62.8081 106.232 63.0101 105.905C65.7706 101.526 67.1845 96.7044 67.3865 91.4749C67.4089 90.8809 67.4875 90.2986 67.5548 89.4251C69.6196 92.8726 67.9139 101.072 64.2557 106.336C64.4914 106.558 64.727 106.791 65.0188 107.058C64.8168 107.187 64.7046 107.291 64.5699 107.338C59.0489 109.05 55.2224 112.94 52.3161 117.89C51.3959 119.451 50.9583 121.268 50.9358 123.189C50.9246 124.599 50.6104 125.996 50.3972 127.627C49.6117 126.951 49.7575 126.276 49.6902 125.694C49.5331 124.377 49.4882 123.038 49.2863 121.722C48.3885 115.829 45.6505 111.065 41.0048 107.513C40.7243 107.303 40.4886 107.035 40.3203 106.523C40.9824 106.616 41.6556 106.721 42.4636 106.837C42.3738 106.43 42.3177 106.045 42.1943 105.684C41.1956 102.668 40.915 99.5579 41.1844 96.4016C41.2853 95.167 41.4312 93.8625 42.587 92.7095C42.5646 93.187 42.5646 93.42 42.5309 93.6529C41.6893 98.4048 42.3738 102.97 44.0907 107.396C44.259 107.827 44.4723 108.293 44.7752 108.608C47.4684 111.368 49.1516 114.745 50.3523 118.414C50.3972 118.554 50.4869 118.67 50.5992 118.903C51.3061 117.471 51.9794 116.131 52.6527 114.769C52.72 114.641 52.7761 114.419 52.72 114.314C52.1141 113.173 52.6415 112.02 52.6976 110.89C52.9332 105.614 51.7213 100.851 48.1978 96.914C47.2327 95.8425 46.0881 94.9457 44.8987 93.8393C45.37 93.7344 45.7291 93.6529 46.2452 93.5364C44.6294 88.8427 44.0683 83.9394 43.698 79.0244C43.3389 74.1793 42.5983 69.3225 43.3164 64.4308C44.4049 68.2277 44.5284 72.1644 45.0558 76.1476L45.0782 76.1593Z" fill="#054B0C" fill-opacity="0.1"/>
<path d="M58.9921 30.4216C59.1492 32.8093 59.2614 35.1969 59.4746 37.5729C59.5419 38.2833 59.7776 39.0636 60.1816 39.6227C61.8648 41.9404 62.6503 44.4794 62.2688 47.3795C62.2576 47.4611 62.3361 47.5659 62.3585 47.6125C63.5929 46.8787 64.8273 46.1566 66.0504 45.4112C66.2524 45.2831 66.488 45.0967 66.5554 44.8755C66.8359 43.9903 67.0491 43.0702 67.3745 41.8706C66.2636 42.7091 66.0616 44.0718 64.6253 44.2465C65.1639 42.8605 65.9606 41.9055 66.8247 41.0436C67.3633 40.5079 67.5878 40.007 67.5541 39.2616C67.5204 38.5395 67.599 37.8058 67.6327 37.0837C67.7336 37.0604 67.8346 37.0371 67.9468 37.0138C68.0815 37.4797 68.2723 37.9455 68.3508 38.4231C68.6987 40.4496 68.5079 42.4529 67.958 44.4096C67.8009 44.957 67.8234 45.318 68.0927 45.8538C69.0129 47.6591 69.0802 49.639 68.6987 51.5957C68.3284 53.4592 67.8571 55.3227 67.2511 57.128C66.6227 59.0148 65.5006 60.424 63.548 61.2044C61.2925 62.1128 59.6654 63.8832 58.6779 66.2475C58.3974 66.9114 57.9934 67.5287 57.6343 68.1576L57.6567 68.1925C57.6567 67.5636 57.4884 66.8415 57.7241 66.329C58.4984 64.6868 58.5096 62.9747 58.4647 61.2393C58.3637 57.3959 58.1056 53.5757 56.3663 50.07C55.9062 49.1382 55.3564 48.253 54.7953 47.2631C55.0758 47.0534 55.39 46.8205 55.7828 46.5409C52.1919 39.3315 50.8341 31.6329 51.1034 23.5966C51.1259 23.0026 51.4625 22.4319 51.6532 21.8379H52.0011C52.0684 22.2106 52.2031 22.5716 52.2031 22.9327C52.2143 26.9392 52.6632 30.8992 53.314 34.8358C53.7517 37.4913 54.4474 40.0886 55.5022 42.6392C55.7603 41.2067 56.0184 39.7625 56.2765 38.3299C56.3775 38.3415 56.4897 38.3532 56.5907 38.3648C56.5571 39.4946 56.4897 40.6243 56.5122 41.7424C56.5346 43.0585 56.86 44.4212 56.6356 45.6907C56.3438 47.333 57.3425 48.3579 57.8587 49.639C58.3749 50.9085 58.7565 52.2246 59.2165 53.5291C59.3736 53.96 59.5644 54.3793 59.744 54.7986C59.8113 57.1513 59.8786 59.4923 59.9459 62.0896C61.4945 60.7618 62.9757 59.7252 64.9619 59.7252C66.6339 55.4741 68.4406 51.2929 67.7112 46.506C65.422 47.1699 64.1876 47.9386 62.9084 49.5342C61.8536 50.8503 60.9222 52.2479 60.5743 53.9717C60.4733 54.4725 60.3275 54.8918 59.7103 54.8335C59.6205 52.9118 60.2489 51.1997 61.0344 49.7089C60.911 49.0334 60.6641 48.486 60.7539 47.9968C61.3262 44.6658 60.406 41.824 58.2964 39.3315C58.0719 39.0636 57.8812 38.7492 57.5894 38.3299C58.0607 38.2717 58.3637 38.2367 58.7003 38.1901C58.7003 37.9805 58.7003 37.8291 58.6779 37.6777C58.5545 35.8841 58.3637 34.1021 58.3525 32.3084C58.3525 31.6912 58.7789 31.0623 59.0145 30.445L58.9809 30.41L58.9921 30.4216Z" fill="#054B0C" fill-opacity="0.1"/>
<path d="M80.5259 90.0886C80.38 90.5428 80.3463 90.799 80.2341 91.0087C76.7554 97.2398 72.7606 103.086 68.1822 108.502C67.7334 109.038 67.4192 109.492 67.9017 110.319C75.8465 105.171 82.4111 98.4161 88.5717 91.195C88.2799 92.8489 87.3934 94.1533 86.4732 95.3879C82.3549 100.967 77.4175 105.649 71.7395 109.492C70.7183 110.191 69.5737 110.704 68.5301 111.356C68.1822 111.577 67.8007 111.938 67.6773 112.322C66.9254 114.629 66.2521 116.958 65.5227 119.381C65.8145 119.485 66.297 119.66 67.1162 119.951C66.3307 120.289 65.8482 120.522 65.3432 120.72C59.2948 123.247 54.2339 127.056 50.8114 132.938C50.2054 133.974 49.8127 135.139 49.3189 136.245C49.1394 136.641 48.9374 137.014 48.7242 137.468C47.9724 136.816 48.3539 136.21 48.4661 135.709C49.0833 133.031 50.3064 130.643 51.9448 128.488C54.7726 124.773 58.3522 122.106 62.4929 120.184C62.9755 119.963 63.5365 119.625 63.7834 119.182C65.0851 116.76 66.1512 114.221 66.4429 111.426C66.4541 111.263 66.5663 111.088 66.5214 110.96C65.9491 109.073 67.1387 107.85 68.0588 106.534C71.3355 101.84 74.6009 97.1349 77.9 92.4529C78.405 91.7308 79.0671 91.1135 79.673 90.4846C79.8301 90.3215 80.0994 90.2749 80.5146 90.0769L80.5259 90.0886Z" fill="#054B0C" fill-opacity="0.1"/>
<path d="M37.2923 109.528C37.5953 108.957 37.8983 108.386 38.2125 107.804C38.3247 107.839 38.4481 107.862 38.5603 107.897C38.5154 108.491 38.493 109.097 38.4032 109.679C37.9656 112.661 38.089 115.607 38.8858 118.519C39.0541 119.125 39.2 119.765 39.4805 120.324C40.5578 122.479 41.5453 124.669 43.1275 126.532C44.8219 128.524 46.2582 130.748 47.2008 133.252C47.5375 134.126 47.7283 135.092 47.8068 136.024C47.8517 136.595 47.56 137.189 47.3355 138.086C47.0213 137.597 46.8418 137.457 46.8306 137.282C46.5276 134.382 45.2259 131.913 43.6324 129.607C41.7584 126.881 39.761 124.261 37.8758 121.687C37.9768 121.256 38.2349 120.802 38.1227 120.476C36.7537 116.166 35.9233 111.729 35.4857 107.233C35.0144 102.318 34.8123 97.3798 35.25 92.4415C35.3061 91.7777 35.5081 91.1254 35.8223 90.4849C36.5292 93.6528 36.3497 96.8557 36.4619 100.047C36.5741 103.215 36.7873 106.371 36.9557 109.539C37.0567 109.539 37.1689 109.528 37.2699 109.516L37.2923 109.528Z" fill="#054B0C" fill-opacity="0.1"/>
<path d="M78.6083 24.7498C78.9449 25.4486 78.6644 26.1474 78.5073 26.8462C77.8565 29.7812 76.465 32.3901 75.2082 35.0573C74.4451 36.6762 73.581 38.2485 72.7619 39.8441C72.6048 40.147 72.4813 40.4731 72.4477 40.8341C74.7705 38.3999 76.4874 35.5465 78.2268 32.658C78.3951 33.7878 78.137 34.8243 77.6657 35.7794C76.1508 38.8309 73.985 41.3932 71.6846 43.8274C71.4041 44.1302 70.8879 44.1884 70.4727 44.3631C69.9565 44.5728 69.4291 44.7824 68.7109 45.062C68.8007 44.6194 68.8119 44.3632 68.9017 44.1535C71.55 38.5164 74.1982 32.891 76.8577 27.2655C77.2842 26.3687 77.7554 25.5068 78.2155 24.6333C78.3502 24.6682 78.4736 24.7148 78.6083 24.7498Z" fill="#054B0C" fill-opacity="0.1"/>
<path d="M57.656 68.1692C57.8018 69.2989 57.9814 70.4287 58.1048 71.5584C58.3405 73.6199 58.2058 75.6581 57.7009 77.6614C57.4428 77.9991 57.1847 78.3369 56.9266 78.6747C56.1186 78.2903 56.5114 77.6032 56.5787 77.0325C56.9378 74.2372 56.6573 71.5002 55.8717 68.8331C55.0414 66.0029 53.4143 63.7201 51.2148 62.0546C51.2934 61.4023 51.4729 60.8549 51.4056 60.3308C51.0016 56.9066 51.2934 53.529 52.0677 50.198C52.2921 49.208 52.6624 48.218 53.706 47.3911C53.3357 48.9634 53.0215 50.2912 52.7297 51.6189C52.0677 54.6588 52.236 57.7452 52.3931 60.82C52.4043 61.1344 52.6512 61.4955 52.8868 61.7168C53.2684 62.0429 53.7285 62.2642 54.3344 62.6369C54.3905 60.5405 53.5938 58.5954 54.0314 56.5805C54.7384 56.7901 54.6711 57.3376 54.7496 57.7568C55.075 59.5272 55.3219 61.3208 55.6922 63.0795C55.8156 63.6502 55.0862 64.1626 55.7595 64.7916C56.2196 65.2225 56.3992 65.9796 56.7246 66.5852C57.0163 67.1326 57.3418 67.6684 57.656 68.2041L57.6335 68.1692H57.656Z" fill="#054B0C" fill-opacity="0.1"/>
<path d="M29.2346 91.3581C29.6049 92.7091 30.0088 94.0485 30.3343 95.3996C31.4003 99.9419 32.3205 104.531 33.5212 109.038C34.3179 111.996 35.5074 114.85 36.5173 117.738C36.7754 118.472 37.056 119.206 36.3266 120.138C35.9114 119.415 35.541 118.868 35.2605 118.274C33.5548 114.745 32.2868 111.03 31.4116 107.198C30.4802 103.11 29.6722 98.9985 28.8643 94.8871C28.6398 93.769 28.4266 92.5926 28.8418 91.4513C28.9765 91.4163 29.0999 91.3814 29.2346 91.3464V91.3581Z" fill="#054B0C" fill-opacity="0.1"/>
<path d="M62.3491 30.41C62.2256 29.816 62.0349 29.2221 62.0012 28.6164C61.7768 24.4934 62.1808 20.4287 63.2692 16.4687C64.5821 11.6702 66.0409 6.90662 67.511 2.15468C67.9598 0.710468 68.173 0.640579 69.4972 0C69.3176 0.605639 69.2166 1.01328 69.082 1.42092C66.8489 8.32753 64.5934 15.2225 63.5386 22.4552C63.2468 24.4468 63.2131 26.4734 63.0336 28.4883C62.9775 29.1289 62.8316 29.7695 62.7306 30.41C62.596 30.41 62.4613 30.41 62.3379 30.41H62.3491Z" fill="#054B0C" fill-opacity="0.1"/>
<path d="M56.9274 78.663C57.1855 78.3252 57.4436 77.9874 57.7017 77.6497C59.4971 75.6231 61.5843 74.0391 64.0867 73.0841C64.7375 72.8395 65.063 72.3853 65.3211 71.7796C66.836 68.204 67.6888 64.5586 66.6676 60.6452C66.6115 60.4123 66.6564 60.1444 66.6452 59.6436C67.0155 59.958 67.296 60.0978 67.4082 60.3191C68.2386 61.973 68.4519 63.7666 68.3284 65.5835C68.1938 67.5984 67.8234 69.9045 66.3198 72.4435C66.6115 72.6532 66.9033 72.8628 67.397 73.2122C66.3759 73.6897 65.5679 74.1207 64.7263 74.4701C61.5955 75.7745 59.0034 77.7545 57.2865 80.8293C56.804 81.6911 56.4785 82.6345 55.9736 83.7526C55.8501 83.3217 55.6369 82.9839 55.7043 82.7277C56.0746 81.3534 56.5122 80.014 56.9162 78.6513L56.9274 78.663Z" fill="#054B0C" fill-opacity="0.1"/>
<path d="M39.2542 69.3687C38.2667 72.0358 38.9849 74.5282 39.4674 76.9974C40.2193 80.8292 41.8576 84.3116 43.6082 87.7475C44.1692 88.8539 44.4722 90.1234 44.8089 91.3347C44.9099 91.7191 44.7527 92.1849 44.7078 92.7207C44.3488 92.5576 44.1356 92.5227 44.0907 92.4179C42.9573 89.9837 41.8688 87.5262 40.7355 85.1036C39.0186 81.4465 37.8067 77.6263 37.47 73.5615C37.4027 72.723 37.4027 71.8611 37.5373 71.0342C37.672 70.1956 37.9862 69.3687 39.2542 69.3687Z" fill="#054B0C" fill-opacity="0.1"/>
<path d="M53.5718 95.2247C53.5605 94.456 53.5044 93.6756 53.5381 92.9069C53.6952 88.4811 53.1902 84.1834 50.8898 80.3283C50.0819 78.9772 49.1056 77.7427 48.1742 76.4732C47.7815 75.9258 47.3326 75.4366 46.8164 74.8077C47.6917 74.5514 48.2079 74.9824 48.7353 75.3784C50.643 76.8342 51.9671 78.7792 52.9658 80.9689C54.851 85.0686 55.5355 89.343 54.6602 93.8387C54.5592 94.3628 54.2899 94.852 54.1104 95.3528C53.9308 95.3178 53.7401 95.2712 53.5605 95.2363L53.5718 95.2247Z" fill="#054B0C" fill-opacity="0.1"/>
<path d="M65.447 27.4284C66.7486 27.5099 66.8272 27.5099 66.8609 28.7212C66.917 30.6313 66.8608 32.5414 66.8384 34.4399C66.8384 35.1503 66.4008 36.0005 68.0616 36.1519C66.4008 36.9206 66.1651 38.0271 65.9744 39.1102C65.6602 40.9271 64.6839 42.4063 63.9657 44.0136C63.8423 44.002 63.7189 43.9903 63.5954 43.967C63.5505 43.6642 63.371 43.3148 63.472 43.0818C63.8086 42.2549 64.235 41.4629 64.639 40.6709C65.0205 39.9255 65.5031 39.2151 65.0093 38.062C64.2238 39.448 63.5281 40.6826 62.664 42.2083C62.5181 41.6609 62.4059 41.4629 62.4396 41.2999C62.8885 39.3548 63.6066 37.5728 65.0767 36.1985C65.3572 35.9306 65.7163 35.5696 65.7387 35.2318C65.8734 33.0772 65.9295 30.9109 66.008 28.6979C64.5492 29.1405 64.3024 29.5015 63.4832 32.157C62.9895 31.1205 63.0456 30.0723 63.8086 29.0124C64.2575 28.3951 64.9083 27.9292 65.4582 27.3818L65.4133 27.4284H65.447Z" fill="#054B0C" fill-opacity="0.1"/>
<path d="M65.4825 27.3816C64.7643 27.2418 64.9439 26.7759 65.1122 26.2984C65.6621 24.8076 66.2344 23.3285 66.7618 21.826C67.8727 18.6231 68.9612 15.4086 70.0721 12.2057C70.319 11.5069 70.5771 10.8081 70.9137 10.1558C71.1606 9.67832 71.5533 9.28231 72.1368 8.97949C72.1368 9.22408 72.2154 9.48031 72.1481 9.71325C70.7117 15.1524 69.2529 20.5915 66.5037 25.5298C66.1558 26.1703 65.7855 26.7992 65.4264 27.4282L65.4713 27.3816H65.4825Z" fill="#054B0C" fill-opacity="0.1"/>
<path d="M54.7712 46.5992C53.5705 46.7972 53.0543 46.3197 52.684 45.7606C51.82 44.4562 50.8774 43.1633 50.2826 41.7191C49.1493 38.9938 48.1954 36.1868 47.7578 33.2285C47.6792 32.6578 47.6231 32.0871 47.8364 31.4116C47.9935 31.6911 48.2067 31.9357 48.3189 32.2385C49.4522 35.4764 50.5632 38.7259 51.6965 41.9637C52.1566 43.2798 52.8411 44.4445 53.8847 45.3646C54.1877 45.6441 54.3897 46.0518 54.7824 46.5875L54.7712 46.5992Z" fill="#054B0C" fill-opacity="0.1"/>
<path d="M37.2461 332.088C39.0303 334.045 42.4978 345.715 42.206 348.196C39.928 343.316 38.8508 338.296 37.3583 333.428C37.2349 333.008 37.2798 332.531 37.2461 332.088Z" fill="#054B0C" fill-opacity="0.1"/>
<path d="M50.1192 60.9365C49.4123 63.1145 49.2664 65.1876 49.4011 67.2957C49.5357 69.3339 50.3998 71.2906 50.1417 73.7015C49.8163 73.2356 49.5694 73.0027 49.4572 72.7115C48.3462 69.9163 47.9984 66.9813 48.234 63.988C48.3462 62.5671 48.941 61.612 50.1305 60.9365H50.1192Z" fill="#054B0C" fill-opacity="0.1"/>
<path d="M72.4792 17.715C72.4455 20.7431 70.7511 23.1191 69.3147 25.5766C68.8996 26.2987 68.3721 27.0907 67.25 27.0558C68.8771 23.8296 70.4706 20.7082 72.0528 17.5752C72.1987 17.6218 72.3445 17.6684 72.4792 17.715Z" fill="#054B0C" fill-opacity="0.1"/>
<path d="M59.028 30.4448C58.7026 29.7926 59.0504 29.4897 59.6003 29.5247C60.0267 29.5596 60.4868 29.7809 60.8571 30.0371C62.9218 31.5163 64.0215 34.7425 63.337 37.2466C63.2585 37.5378 63.0902 37.794 62.776 38.4462C62.6413 37.7125 62.5627 37.3514 62.4954 36.9903C62.2822 35.849 62.1812 34.6726 61.8221 33.5894C61.3396 32.1452 60.3858 31.0388 58.9943 30.4098L59.028 30.4448Z" fill="#054B0C" fill-opacity="0.1"/>
<path d="M42.0714 114.314C42.9467 117.517 43.9903 120.65 45.6399 123.527C45.8194 123.83 46.1112 124.075 46.3805 124.377C45.8755 125.193 45.3369 124.843 44.9441 124.331C44.5402 123.795 44.2147 123.178 43.9342 122.549C42.9579 120.382 41.9368 118.239 41.7011 115.817C41.6562 115.339 41.7348 114.839 41.7572 114.349C41.8582 114.349 41.9705 114.326 42.0714 114.314Z" fill="#054B0C" fill-opacity="0.1"/>
<path d="M50.5898 134.964C52.1721 132.157 55.8976 129.246 57.4125 129.281C57.4125 129.374 57.4574 129.525 57.4125 129.56C55.6058 131.202 53.8104 132.868 51.9701 134.463C51.6222 134.766 51.0499 134.801 50.5898 134.964Z" fill="#054B0C" fill-opacity="0.1"/>
<path d="M50.4684 92.8839C49.7166 93.245 49.4361 92.8373 49.2677 92.3947C48.9984 91.7076 48.774 91.0088 48.5832 90.2866C48.1792 88.7609 47.7977 87.2235 47.4611 85.6745C47.3601 85.197 47.3937 84.6845 47.5284 84.1604C48.6618 85.3484 48.7852 86.944 49.2453 88.3766C49.7166 89.8557 50.0757 91.3815 50.4796 92.8723L50.4684 92.8839Z" fill="#054B0C" fill-opacity="0.1"/>
<path d="M49.5452 110.494C49.0851 110.494 48.7484 110.599 48.5128 110.471C48.2659 110.343 48.0527 110.028 47.9517 109.737C47.0764 107.128 46.2124 104.531 45.4045 101.899C45.2586 101.41 45.4045 100.827 45.5391 100.28C46.9418 103.541 47.3794 107.151 49.534 110.482L49.5452 110.494Z" fill="#054B0C" fill-opacity="0.1"/>
<path d="M47.6727 124.377C46.0792 123.026 44.6429 117.074 45.3274 115.211C46.4383 118.169 47.2575 121.023 47.6727 124.377Z" fill="#054B0C" fill-opacity="0.1"/>
<path d="M61.3722 94.7939C61.0355 97.5776 58.5219 101.141 56.6367 101.514C57.9496 99.3595 59.1728 97.3213 60.4296 95.318C60.5642 95.1084 60.9121 95.0385 61.361 94.7939H61.3722Z" fill="#054B0C" fill-opacity="0.1"/>
<path d="M58.6445 85.7092C58.8577 85.255 59.0485 84.7775 59.3066 84.3466C60.238 82.7626 61.1694 81.1669 62.1456 79.6179C62.4823 79.0821 62.875 78.4648 63.7166 78.7094C62.9536 80.6312 59.733 85.4064 58.6445 85.7092Z" fill="#054B0C" fill-opacity="0.1"/>
<path d="M48.0993 101.468C49.8162 104.345 50.8373 108.374 50.3099 109.947C49.4907 108.91 47.8524 102.9 48.0993 101.468Z" fill="#054B0C" fill-opacity="0.1"/>
<path d="M41.5897 131.074C43.4188 133.31 44.6532 135.803 44.9337 138.738C43.6432 137.864 43.43 136.327 42.8689 135.046C42.3191 133.776 41.4326 132.611 41.5785 131.074H41.5897Z" fill="#054B0C" fill-opacity="0.1"/>
<path d="M53.3285 77.9876C52.3186 76.753 50.9496 71.1975 51.2974 69.5669C52.2288 70.8481 52.442 72.3039 52.7786 73.6549C53.1265 75.0293 53.8335 76.4036 53.3285 77.9876Z" fill="#054B0C" fill-opacity="0.1"/>
<path d="M40.3766 131.75C41.4427 134.114 42.5087 136.467 43.6757 139.052C43.2493 138.971 42.9127 138.982 42.677 138.819C42.4301 138.656 42.2281 138.365 42.1159 138.085C41.409 136.385 40.7245 134.685 40.0624 132.972C39.939 132.658 39.9951 132.262 39.9727 131.901C40.1073 131.854 40.2532 131.796 40.3878 131.75H40.3766Z" fill="#054B0C" fill-opacity="0.1"/>
<path d="M56.3003 117.633C57.1868 115.584 58.6344 113.965 60.1717 112.404C60.5308 112.043 61.0021 111.822 61.6081 112.101C60.0932 113.965 58.6344 115.77 57.1419 117.552C56.996 117.727 56.7267 117.773 56.5135 117.89C56.435 117.797 56.3676 117.715 56.2891 117.622L56.3003 117.633Z" fill="#054B0C" fill-opacity="0.1"/>
<path d="M60.3295 28.0806C59.3645 25.5183 58.4555 22.9676 58.7585 20.1724C59.7236 22.723 60.7672 25.2504 60.3295 28.0806Z" fill="#054B0C" fill-opacity="0.1"/>
<path d="M63.1777 95.5858C62.482 98.2879 61.3598 100.722 59.2726 102.551C59.1492 102.469 59.0258 102.399 58.9023 102.318C60.2265 100 61.5394 97.6822 62.8635 95.3645C62.9645 95.4344 63.0767 95.5043 63.1777 95.5858Z" fill="#054B0C" fill-opacity="0.1"/>
<path d="M65.3926 79.7927C64.8091 82.0639 61.9812 85.9306 60.5 86.6294C60.6795 85.5812 63.9001 81.004 65.3926 79.7927Z" fill="#054B0C" fill-opacity="0.1"/>
<path d="M50.1173 84.3352C51.0262 86.5598 51.8903 88.8076 51.8454 91.2884C50.5998 89.157 49.9938 86.8509 50.1173 84.3352Z" fill="#054B0C" fill-opacity="0.1"/>
<path d="M57.0649 61.7403C56.2906 60.6921 55.853 58.7238 55.7969 56.0333C55.7969 55.5209 55.954 54.9968 56.0999 54.1582C56.8629 55.8936 57.3903 60.2262 57.0649 61.7287V61.7403Z" fill="#054B0C" fill-opacity="0.1"/>
<path d="M54.0671 69.6135C54.875 71.6401 55.6268 73.6899 55.1107 76.0659C54.9536 75.7747 54.7291 75.4952 54.6506 75.1807C54.2578 73.5968 53.8987 72.0128 53.5621 70.4172C53.5172 70.1959 53.6182 69.9396 53.6518 69.6951C53.7865 69.6718 53.9212 69.6368 54.0671 69.6135Z" fill="#054B0C" fill-opacity="0.1"/>
<path d="M65.3536 66.7249C65.4995 69.1474 63.9846 70.8944 61.7852 71.0342C62.4809 70.2655 63.1093 69.6249 63.6816 68.9378C64.2651 68.2273 64.7925 67.4703 65.3536 66.7249Z" fill="#054B0C" fill-opacity="0.1"/>
<path d="M61.922 114.803C61.3609 116.958 59.2288 118.798 57.1641 118.856C58.8248 117.447 60.2949 116.189 61.922 114.803Z" fill="#054B0C" fill-opacity="0.1"/>
<path d="M64.2444 64.687C63.9527 66.7369 62.4939 68.8566 60.9453 69.404C62.0114 67.7035 62.8193 66.1662 64.2444 64.687Z" fill="#054B0C" fill-opacity="0.1"/>
<path d="M57.6564 43.874C58.3522 45.5628 58.5879 47.0303 58.4869 48.7424C57.5891 47.9038 57.2188 45.6793 57.6564 43.874Z" fill="#054B0C" fill-opacity="0.1"/>
<path d="M59.5429 47.8803C58.9033 46.4478 58.8472 45.4462 59.1838 43.9204C59.9806 45.3646 59.599 46.6458 59.5429 47.8803Z" fill="#054B0C" fill-opacity="0.1"/>
<path d="M75.6134 251.561C76.5784 253.704 75.1084 292.477 74.7157 294.864C74.1546 292.209 74.0761 289.67 74.1546 287.142C74.3903 279.607 74.7381 272.06 75.0186 264.524C75.1533 260.913 75.2094 257.303 75.3328 253.681C75.3553 252.97 75.5124 252.271 75.6134 251.561Z" fill="#054B0C" fill-opacity="0.1"/>
<path d="M95.9463 341.836C97.652 345.33 96.9226 356.826 95.0149 360.215C94.5661 359.679 94.7456 359.12 94.8017 358.584C95.0935 355.684 95.4526 352.784 95.6658 349.884C95.8229 347.776 95.7668 345.645 95.8229 343.537C95.8341 342.978 95.9126 342.407 95.9575 341.848L95.9463 341.836Z" fill="#054B0C" fill-opacity="0.1"/>
<path d="M28.9998 357.618C30.2453 358.713 35.8112 370.639 36.5182 373.76C35.3623 373.085 34.7564 372.037 34.2514 370.954C32.7253 367.704 31.2553 364.443 29.7628 361.182C29.5047 360.611 29.2242 360.04 29.011 359.446C28.7978 358.864 28.5958 358.247 29.011 357.641L28.9998 357.618Z" fill="#054B0C" fill-opacity="0.1"/>
<path d="M65.5458 51.6423C65.4223 53.6572 64.4236 55.1946 62.9536 56.5806C62.7292 55.6372 63.7055 53.7504 65.5458 51.6423Z" fill="#054B0C" fill-opacity="0.1"/>
<path d="M61.9805 54.6472C62.7435 52.8885 63.6188 51.2113 65.2123 49.8835C65.1 51.188 63.4393 53.7154 61.9805 54.6472Z" fill="#054B0C" fill-opacity="0.1"/>
</svg>
